STARTFONT 2.1
FONT -FontForge-Arial Narrow-Bold-R-Normal--12-120-75-75-P-62-ISO10646-1
SIZE 12 75 75
FONTBOUNDINGBOX 14 19 -2 -4
COMMENT "Generated by fontforge, http://fontforge.sourceforge.net"
COMMENT "(c) 2008 The Monotype Corporation. All Rights Reserved."
STARTPROPERTIES 40
FOUNDRY "FontForge"
FAMILY_NAME "Arial Narrow"
WEIGHT_NAME "Bold"
SLANT "R"
SETWIDTH_NAME "Normal"
ADD_STYLE_NAME ""
PIXEL_SIZE 12
POINT_SIZE 120
RESOLUTION_X 75
RESOLUTION_Y 75
SPACING "P"
AVERAGE_WIDTH 62
CHARSET_REGISTRY "ISO10646"
CHARSET_ENCODING "1"
FONTNAME_REGISTRY ""
CHARSET_COLLECTIONS "ASCII ISOLatin1Encoding ISO8859-2 ISO8859-5 ISO8859-7 ISO8859-9 ISO8859-4 ISO10646-1"
FONT_NAME "ArialNarrow-Bold"
FACE_NAME "Arial Narrow Bold"
COPYRIGHT "(c) 2008 The Monotype Corporation. All Rights Reserved."
FONT_VERSION "2.40"
FONT_ASCENT 10
FONT_DESCENT 2
UNDERLINE_POSITION -2
UNDERLINE_THICKNESS 1
X_HEIGHT 5
CAP_HEIGHT 8
RAW_ASCENT 799
RAW_DESCENT 200
NORM_SPACE 3
RELATIVE_WEIGHT 70
RELATIVE_SETWIDTH 30
SUPERSCRIPT_X 0
SUPERSCRIPT_Y 3
SUPERSCRIPT_SIZE 7
SUBSCRIPT_X 0
SUBSCRIPT_Y 0
SUBSCRIPT_SIZE 7
FIGURE_WIDTH 5
AVG_LOWERCASE_WIDTH 54
AVG_UPPERCASE_WIDTH 68
ENDPROPERTIES
CHARS 667
STARTCHAR space
ENCODING 32
SWIDTH 228 0
DWIDTH 3 0
BBX 1 1 0 0
BITMAP
00
ENDCHAR
STARTCHAR exclam
ENCODING 33
SWIDTH 272 0
DWIDTH 3 0
BBX 2 9 0 0
BITMAP
C0
C0
C0
C0
C0
C0
C0
00
C0
ENDCHAR
STARTCHAR quotedbl
ENCODING 34
SWIDTH 389 0
DWIDTH 5 0
BBX 5 3 0 6
BITMAP
D8
D8
D8
ENDCHAR
STARTCHAR numbersign
ENCODING 35
SWIDTH 456 0
DWIDTH 5 0
BBX 5 9 0 0
BITMAP
28
28
F8
50
50
50
F8
A0
A0
ENDCHAR
STARTCHAR dollar
ENCODING 36
SWIDTH 456 0
DWIDTH 5 0
BBX 5 11 0 -1
BITMAP
20
70
A8
A0
E0
70
38
A8
E8
70
20
ENDCHAR
STARTCHAR percent
ENCODING 37
SWIDTH 729 0
DWIDTH 9 0
BBX 8 9 0 0
BITMAP
E4
A4
A8
E8
10
17
15
25
27
ENDCHAR
STARTCHAR ampersand
ENCODING 38
SWIDTH 591 0
DWIDTH 7 0
BBX 7 9 0 0
BITMAP
38
6C
6C
38
70
FA
CC
CE
7C
ENDCHAR
STARTCHAR quotesingle
ENCODING 39
SWIDTH 194 0
DWIDTH 2 0
BBX 2 3 0 6
BITMAP
C0
C0
C0
ENDCHAR
STARTCHAR parenleft
ENCODING 40
SWIDTH 272 0
DWIDTH 3 0
BBX 3 11 0 -2
BITMAP
20
60
40
C0
C0
C0
C0
C0
40
60
20
ENDCHAR
STARTCHAR parenright
ENCODING 41
SWIDTH 272 0
DWIDTH 3 0
BBX 3 11 -1 -2
BITMAP
80
C0
40
60
60
60
60
60
40
C0
80
ENDCHAR
STARTCHAR asterisk
ENCODING 42
SWIDTH 318 0
DWIDTH 4 0
BBX 3 4 0 5
BITMAP
40
E0
40
A0
ENDCHAR
STARTCHAR plus
ENCODING 43
SWIDTH 479 0
DWIDTH 6 0
BBX 6 6 0 1
BITMAP
30
30
FC
FC
30
30
ENDCHAR
STARTCHAR comma
ENCODING 44
SWIDTH 228 0
DWIDTH 3 0
BBX 2 3 0 -2
BITMAP
C0
40
80
ENDCHAR
STARTCHAR hyphen
ENCODING 45
SWIDTH 272 0
DWIDTH 3 0
BBX 3 1 0 2
BITMAP
E0
ENDCHAR
STARTCHAR period
ENCODING 46
SWIDTH 228 0
DWIDTH 3 0
BBX 2 1 0 0
BITMAP
C0
ENDCHAR
STARTCHAR slash
ENCODING 47
SWIDTH 228 0
DWIDTH 3 0
BBX 3 9 0 0
BITMAP
60
60
60
60
E0
C0
C0
C0
C0
ENDCHAR
STARTCHAR zero
ENCODING 48
SWIDTH 456 0
DWIDTH 5 0
BBX 5 9 0 0
BITMAP
70
D8
D8
D8
D8
D8
D8
D8
70
ENDCHAR
STARTCHAR one
ENCODING 49
SWIDTH 456 0
DWIDTH 5 0
BBX 3 9 1 0
BITMAP
20
60
E0
E0
60
60
60
60
60
ENDCHAR
STARTCHAR two
ENCODING 50
SWIDTH 456 0
DWIDTH 5 0
BBX 5 9 0 0
BITMAP
70
D8
18
18
38
70
60
C0
F8
ENDCHAR
STARTCHAR three
ENCODING 51
SWIDTH 456 0
DWIDTH 5 0
BBX 5 9 0 0
BITMAP
70
D8
18
18
30
18
18
D8
70
ENDCHAR
STARTCHAR four
ENCODING 52
SWIDTH 456 0
DWIDTH 5 0
BBX 5 9 0 0
BITMAP
30
30
70
70
B0
B0
F8
30
30
ENDCHAR
STARTCHAR five
ENCODING 53
SWIDTH 456 0
DWIDTH 5 0
BBX 5 9 0 0
BITMAP
78
40
40
F0
98
18
18
D8
70
ENDCHAR
STARTCHAR six
ENCODING 54
SWIDTH 456 0
DWIDTH 5 0
BBX 5 9 0 0
BITMAP
70
58
C0
F0
D8
D8
D8
D8
70
ENDCHAR
STARTCHAR seven
ENCODING 55
SWIDTH 456 0
DWIDTH 5 0
BBX 5 9 0 0
BITMAP
F8
18
30
30
30
60
60
60
60
ENDCHAR
STARTCHAR eight
ENCODING 56
SWIDTH 456 0
DWIDTH 5 0
BBX 5 9 0 0
BITMAP
70
D8
D8
D8
20
D8
D8
D8
70
ENDCHAR
STARTCHAR nine
ENCODING 57
SWIDTH 456 0
DWIDTH 5 0
BBX 5 9 0 0
BITMAP
70
D8
D8
D8
D8
78
18
D0
70
ENDCHAR
STARTCHAR colon
ENCODING 58
SWIDTH 272 0
DWIDTH 3 0
BBX 2 6 0 0
BITMAP
C0
00
00
00
00
C0
ENDCHAR
STARTCHAR semicolon
ENCODING 59
SWIDTH 272 0
DWIDTH 3 0
BBX 2 8 0 -2
BITMAP
C0
00
00
00
00
C0
40
80
ENDCHAR
STARTCHAR less
ENCODING 60
SWIDTH 479 0
DWIDTH 6 0
BBX 6 7 0 0
BITMAP
04
3C
F8
C0
F8
3C
04
ENDCHAR
STARTCHAR equal
ENCODING 61
SWIDTH 479 0
DWIDTH 6 0
BBX 6 5 0 1
BITMAP
FC
FC
00
FC
FC
ENDCHAR
STARTCHAR greater
ENCODING 62
SWIDTH 479 0
DWIDTH 6 0
BBX 6 7 0 0
BITMAP
80
F0
7C
0C
7C
F0
80
ENDCHAR
STARTCHAR question
ENCODING 63
SWIDTH 500 0
DWIDTH 6 0
BBX 5 9 0 0
BITMAP
70
D8
18
18
38
30
30
00
30
ENDCHAR
STARTCHAR at
ENCODING 64
SWIDTH 799 0
DWIDTH 10 0
BBX 10 11 0 -2
BITMAP
1F00
2180
40C0
8F40
9140
A240
A240
A280
5F40
6080
1F00
ENDCHAR
STARTCHAR A
ENCODING 65
SWIDTH 591 0
DWIDTH 7 0
BBX 6 9 0 0
BITMAP
30
30
78
48
48
78
CC
CC
CC
ENDCHAR
STARTCHAR B
ENCODING 66
SWIDTH 591 0
DWIDTH 7 0
BBX 6 9 0 0
BITMAP
F8
CC
CC
CC
F8
CC
CC
CC
F8
ENDCHAR
STARTCHAR C
ENCODING 67
SWIDTH 591 0
DWIDTH 7 0
BBX 6 9 0 0
BITMAP
78
CC
C0
C0
C0
C0
CC
CC
78
ENDCHAR
STARTCHAR D
ENCODING 68
SWIDTH 591 0
DWIDTH 7 0
BBX 6 9 0 0
BITMAP
F8
CC
CC
CC
CC
CC
CC
CC
F8
ENDCHAR
STARTCHAR E
ENCODING 69
SWIDTH 546 0
DWIDTH 6 0
BBX 5 9 0 0
BITMAP
F8
C0
C0
C0
F8
C0
C0
C0
F8
ENDCHAR
STARTCHAR F
ENCODING 70
SWIDTH 500 0
DWIDTH 6 0
BBX 5 9 0 0
BITMAP
F8
C0
C0
C0
F8
C0
C0
C0
C0
ENDCHAR
STARTCHAR G
ENCODING 71
SWIDTH 638 0
DWIDTH 7 0
BBX 6 9 0 0
BITMAP
78
CC
C0
C0
DC
CC
CC
CC
78
ENDCHAR
STARTCHAR H
ENCODING 72
SWIDTH 591 0
DWIDTH 7 0
BBX 6 9 0 0
BITMAP
CC
CC
CC
CC
FC
CC
CC
CC
CC
ENDCHAR
STARTCHAR I
ENCODING 73
SWIDTH 228 0
DWIDTH 3 0
BBX 2 9 0 0
BITMAP
C0
C0
C0
C0
C0
C0
C0
C0
C0
ENDCHAR
STARTCHAR J
ENCODING 74
SWIDTH 456 0
DWIDTH 5 0
BBX 4 9 0 0
BITMAP
30
30
30
30
30
30
B0
B0
60
ENDCHAR
STARTCHAR K
ENCODING 75
SWIDTH 591 0
DWIDTH 7 0
BBX 6 9 0 0
BITMAP
CC
D8
D8
F0
F8
D8
CC
CC
CC
ENDCHAR
STARTCHAR L
ENCODING 76
SWIDTH 500 0
DWIDTH 6 0
BBX 5 9 0 0
BITMAP
C0
C0
C0
C0
C0
C0
C0
C0
F8
ENDCHAR
STARTCHAR M
ENCODING 77
SWIDTH 683 0
DWIDTH 8 0
BBX 7 9 0 0
BITMAP
C6
C6
C6
EE
EE
F6
D6
D6
D6
ENDCHAR
STARTCHAR N
ENCODING 78
SWIDTH 591 0
DWIDTH 7 0
BBX 6 9 0 0
BITMAP
CC
EC
EC
EC
FC
DC
DC
DC
CC
ENDCHAR
STARTCHAR O
ENCODING 79
SWIDTH 638 0
DWIDTH 8 0
BBX 7 9 0 0
BITMAP
3C
6C
C6
C6
C6
C6
C6
6C
38
ENDCHAR
STARTCHAR P
ENCODING 80
SWIDTH 546 0
DWIDTH 7 0
BBX 6 9 0 0
BITMAP
F8
CC
CC
CC
CC
F8
C0
C0
C0
ENDCHAR
STARTCHAR Q
ENCODING 81
SWIDTH 638 0
DWIDTH 8 0
BBX 8 10 0 -1
BITMAP
38
6C
C6
C6
C6
C6
D6
6E
3E
03
ENDCHAR
STARTCHAR R
ENCODING 82
SWIDTH 591 0
DWIDTH 7 0
BBX 7 9 0 0
BITMAP
F8
CC
CC
CC
F8
D8
CC
CC
C6
ENDCHAR
STARTCHAR S
ENCODING 83
SWIDTH 546 0
DWIDTH 7 0
BBX 6 9 0 0
BITMAP
78
CC
CC
F0
78
1C
CC
CC
78
ENDCHAR
STARTCHAR T
ENCODING 84
SWIDTH 500 0
DWIDTH 7 0
BBX 6 9 0 0
BITMAP
FC
30
30
30
30
30
30
30
30
ENDCHAR
STARTCHAR U
ENCODING 85
SWIDTH 591 0
DWIDTH 7 0
BBX 6 9 0 0
BITMAP
CC
CC
CC
CC
CC
CC
CC
CC
78
ENDCHAR
STARTCHAR V
ENCODING 86
SWIDTH 546 0
DWIDTH 7 0
BBX 6 9 0 0
BITMAP
CC
CC
CC
48
78
78
78
30
30
ENDCHAR
STARTCHAR W
ENCODING 87
SWIDTH 773 0
DWIDTH 9 0
BBX 8 9 0 0
BITMAP
DB
DB
DB
DB
DB
DB
EB
66
66
ENDCHAR
STARTCHAR X
ENCODING 88
SWIDTH 546 0
DWIDTH 7 0
BBX 7 9 0 0
BITMAP
C6
6C
6C
38
38
38
6C
6C
C6
ENDCHAR
STARTCHAR Y
ENCODING 89
SWIDTH 546 0
DWIDTH 7 0
BBX 6 9 0 0
BITMAP
CC
CC
78
78
30
30
30
30
30
ENDCHAR
STARTCHAR Z
ENCODING 90
SWIDTH 500 0
DWIDTH 6 0
BBX 5 9 0 0
BITMAP
F8
18
30
30
60
60
60
C0
F8
ENDCHAR
STARTCHAR bracketleft
ENCODING 91
SWIDTH 272 0
DWIDTH 3 0
BBX 3 11 0 -2
BITMAP
E0
C0
C0
C0
C0
C0
C0
C0
C0
C0
E0
ENDCHAR
STARTCHAR backslash
ENCODING 92
SWIDTH 228 0
DWIDTH 3 0
BBX 3 9 0 0
BITMAP
C0
C0
C0
C0
E0
60
60
60
60
ENDCHAR
STARTCHAR bracketright
ENCODING 93
SWIDTH 272 0
DWIDTH 3 0
BBX 3 11 -1 -2
BITMAP
E0
60
60
60
60
60
60
60
60
60
E0
ENDCHAR
STARTCHAR asciicircum
ENCODING 94
SWIDTH 479 0
DWIDTH 6 0
BBX 5 5 1 4
BITMAP
70
70
D8
D8
D8
ENDCHAR
STARTCHAR underscore
ENCODING 95
SWIDTH 456 0
DWIDTH 5 0
BBX 5 1 0 -2
BITMAP
F8
ENDCHAR
STARTCHAR grave
ENCODING 96
SWIDTH 272 0
DWIDTH 3 0
BBX 2 2 0 7
BITMAP
C0
40
ENDCHAR
STARTCHAR a
ENCODING 97
SWIDTH 456 0
DWIDTH 5 0
BBX 4 6 0 0
BITMAP
E0
30
70
B0
B0
F0
ENDCHAR
STARTCHAR b
ENCODING 98
SWIDTH 500 0
DWIDTH 6 0
BBX 5 9 0 0
BITMAP
C0
C0
C0
F0
D8
D8
D8
D8
F0
ENDCHAR
STARTCHAR c
ENCODING 99
SWIDTH 456 0
DWIDTH 5 0
BBX 4 6 0 0
BITMAP
60
D0
C0
C0
D0
60
ENDCHAR
STARTCHAR d
ENCODING 100
SWIDTH 500 0
DWIDTH 6 0
BBX 5 9 0 0
BITMAP
18
18
18
78
D8
D8
D8
D8
78
ENDCHAR
STARTCHAR e
ENCODING 101
SWIDTH 456 0
DWIDTH 5 0
BBX 4 6 0 0
BITMAP
60
D0
F0
C0
D0
60
ENDCHAR
STARTCHAR f
ENCODING 102
SWIDTH 272 0
DWIDTH 3 0
BBX 4 9 -1 0
BITMAP
30
60
60
F0
60
60
60
60
60
ENDCHAR
STARTCHAR g
ENCODING 103
SWIDTH 500 0
DWIDTH 6 0
BBX 5 8 0 -2
BITMAP
78
D8
D8
D8
D8
78
D8
70
ENDCHAR
STARTCHAR h
ENCODING 104
SWIDTH 500 0
DWIDTH 6 0
BBX 5 9 0 0
BITMAP
C0
C0
C0
F0
D8
D8
D8
D8
D8
ENDCHAR
STARTCHAR i
ENCODING 105
SWIDTH 228 0
DWIDTH 3 0
BBX 2 9 0 0
BITMAP
C0
C0
00
C0
C0
C0
C0
C0
C0
ENDCHAR
STARTCHAR j
ENCODING 106
SWIDTH 228 0
DWIDTH 3 0
BBX 3 11 -1 -2
BITMAP
60
60
00
60
60
60
60
60
60
60
C0
ENDCHAR
STARTCHAR k
ENCODING 107
SWIDTH 456 0
DWIDTH 5 0
BBX 5 9 0 0
BITMAP
C0
C0
C0
D0
F0
F0
F0
D8
D8
ENDCHAR
STARTCHAR l
ENCODING 108
SWIDTH 228 0
DWIDTH 3 0
BBX 2 9 0 0
BITMAP
C0
C0
C0
C0
C0
C0
C0
C0
C0
ENDCHAR
STARTCHAR m
ENCODING 109
SWIDTH 729 0
DWIDTH 9 0
BBX 8 6 0 0
BITMAP
F6
DB
DB
DB
DB
DB
ENDCHAR
STARTCHAR n
ENCODING 110
SWIDTH 500 0
DWIDTH 6 0
BBX 5 6 0 0
BITMAP
F0
D8
D8
D8
D8
D8
ENDCHAR
STARTCHAR o
ENCODING 111
SWIDTH 500 0
DWIDTH 6 0
BBX 5 6 0 0
BITMAP
70
D8
D8
D8
D8
70
ENDCHAR
STARTCHAR p
ENCODING 112
SWIDTH 500 0
DWIDTH 6 0
BBX 5 8 0 -2
BITMAP
F0
D8
D8
D8
D8
F0
C0
C0
ENDCHAR
STARTCHAR q
ENCODING 113
SWIDTH 500 0
DWIDTH 6 0
BBX 5 8 0 -2
BITMAP
78
D8
D8
D8
D8
78
18
18
ENDCHAR
STARTCHAR r
ENCODING 114
SWIDTH 318 0
DWIDTH 4 0
BBX 4 6 0 0
BITMAP
F0
C0
C0
C0
C0
C0
ENDCHAR
STARTCHAR s
ENCODING 115
SWIDTH 456 0
DWIDTH 5 0
BBX 4 6 0 0
BITMAP
60
D0
F0
30
B0
60
ENDCHAR
STARTCHAR t
ENCODING 116
SWIDTH 272 0
DWIDTH 3 0
BBX 4 8 -1 0
BITMAP
20
60
F0
60
60
60
60
30
ENDCHAR
STARTCHAR u
ENCODING 117
SWIDTH 500 0
DWIDTH 6 0
BBX 5 6 0 0
BITMAP
D8
D8
D8
D8
D8
78
ENDCHAR
STARTCHAR v
ENCODING 118
SWIDTH 456 0
DWIDTH 6 0
BBX 5 6 0 0
BITMAP
D8
D8
50
50
70
70
ENDCHAR
STARTCHAR w
ENCODING 119
SWIDTH 638 0
DWIDTH 8 0
BBX 7 6 0 0
BITMAP
D6
D6
D6
6C
6C
6C
ENDCHAR
STARTCHAR x
ENCODING 120
SWIDTH 456 0
DWIDTH 5 0
BBX 5 6 0 0
BITMAP
D8
50
60
30
50
D8
ENDCHAR
STARTCHAR y
ENCODING 121
SWIDTH 456 0
DWIDTH 5 0
BBX 5 8 0 -2
BITMAP
D8
D8
50
70
70
20
20
C0
ENDCHAR
STARTCHAR z
ENCODING 122
SWIDTH 410 0
DWIDTH 5 0
BBX 4 6 0 0
BITMAP
F0
30
60
60
C0
F0
ENDCHAR
STARTCHAR braceleft
ENCODING 123
SWIDTH 318 0
DWIDTH 4 0
BBX 4 11 -1 -2
BITMAP
30
60
60
60
60
C0
60
60
60
60
30
ENDCHAR
STARTCHAR bar
ENCODING 124
SWIDTH 229 0
DWIDTH 3 0
BBX 2 11 0 -2
BITMAP
C0
C0
C0
C0
C0
C0
C0
C0
C0
C0
C0
ENDCHAR
STARTCHAR braceright
ENCODING 125
SWIDTH 318 0
DWIDTH 4 0
BBX 4 11 0 -2
BITMAP
C0
60
60
60
60
30
60
60
60
60
C0
ENDCHAR
STARTCHAR asciitilde
ENCODING 126
SWIDTH 479 0
DWIDTH 6 0
BBX 6 2 0 3
BITMAP
E4
9C
ENDCHAR
STARTCHAR nbspace
ENCODING 160
SWIDTH 456 0
DWIDTH 5 0
BBX 1 1 0 0
BITMAP
00
ENDCHAR
STARTCHAR exclamdown
ENCODING 161
SWIDTH 272 0
DWIDTH 3 0
BBX 2 8 0 -2
BITMAP
C0
00
C0
C0
C0
C0
C0
C0
ENDCHAR
STARTCHAR cent
ENCODING 162
SWIDTH 456 0
DWIDTH 5 0
BBX 5 11 0 -2
BITMAP
10
10
10
70
F8
E0
E0
F8
70
40
40
ENDCHAR
STARTCHAR sterling
ENCODING 163
SWIDTH 456 0
DWIDTH 6 0
BBX 6 9 0 0
BITMAP
38
6C
60
60
F0
60
60
C0
FC
ENDCHAR
STARTCHAR currency
ENCODING 164
SWIDTH 456 0
DWIDTH 5 0
BBX 6 7 0 1
BITMAP
48
FC
48
48
48
FC
48
ENDCHAR
STARTCHAR yen
ENCODING 165
SWIDTH 456 0
DWIDTH 6 0
BBX 6 9 0 0
BITMAP
CC
48
78
78
FC
30
FC
30
30
ENDCHAR
STARTCHAR brokenbar
ENCODING 166
SWIDTH 229 0
DWIDTH 3 0
BBX 2 11 1 -2
BITMAP
C0
C0
C0
C0
C0
00
C0
C0
C0
C0
C0
ENDCHAR
STARTCHAR section
ENCODING 167
SWIDTH 456 0
DWIDTH 5 0
BBX 4 11 0 -2
BITMAP
60
90
80
60
B0
90
D0
60
10
90
60
ENDCHAR
STARTCHAR dieresis
ENCODING 168
SWIDTH 272 0
DWIDTH 3 0
BBX 3 1 0 7
BITMAP
A0
ENDCHAR
STARTCHAR copyright
ENCODING 169
SWIDTH 604 0
DWIDTH 7 0
BBX 7 9 0 0
BITMAP
38
44
92
AA
A2
AA
92
44
38
ENDCHAR
STARTCHAR ordfeminine
ENCODING 170
SWIDTH 303 0
DWIDTH 4 0
BBX 3 4 0 5
BITMAP
E0
20
E0
E0
ENDCHAR
STARTCHAR guillemotleft
ENCODING 171
SWIDTH 456 0
DWIDTH 5 0
BBX 6 6 -1 0
BITMAP
6C
48
D8
48
6C
24
ENDCHAR
STARTCHAR logicalnot
ENCODING 172
SWIDTH 479 0
DWIDTH 6 0
BBX 5 5 0 1
BITMAP
F8
F8
18
18
18
ENDCHAR
STARTCHAR hyphen.dup1
ENCODING 173
SWIDTH 272 0
DWIDTH 3 0
BBX 3 1 0 2
BITMAP
E0
ENDCHAR
STARTCHAR registered
ENCODING 174
SWIDTH 604 0
DWIDTH 7 0
BBX 7 9 0 0
BITMAP
38
44
BA
AA
B2
B2
AA
44
38
ENDCHAR
STARTCHAR overscore
ENCODING 175
SWIDTH 500 0
DWIDTH 6 0
BBX 6 1 0 9
BITMAP
FC
ENDCHAR
STARTCHAR degree
ENCODING 176
SWIDTH 399 0
DWIDTH 5 0
BBX 4 4 0 5
BITMAP
60
90
90
60
ENDCHAR
STARTCHAR plusminus
ENCODING 177
SWIDTH 548 0
DWIDTH 7 0
BBX 6 9 0 0
BITMAP
30
30
FC
FC
30
30
00
FC
FC
ENDCHAR
STARTCHAR twosuperior
ENCODING 178
SWIDTH 272 0
DWIDTH 3 0
BBX 3 4 0 5
BITMAP
E0
20
40
E0
ENDCHAR
STARTCHAR threesuperior
ENCODING 179
SWIDTH 272 0
DWIDTH 3 0
BBX 3 4 0 5
BITMAP
E0
60
20
E0
ENDCHAR
STARTCHAR acute
ENCODING 180
SWIDTH 272 0
DWIDTH 3 0
BBX 2 2 1 7
BITMAP
C0
80
ENDCHAR
STARTCHAR mu1
ENCODING 181
SWIDTH 576 0
DWIDTH 7 0
BBX 5 8 1 -2
BITMAP
D8
D8
D8
D8
D8
F8
C0
C0
ENDCHAR
STARTCHAR paragraph
ENCODING 182
SWIDTH 456 0
DWIDTH 5 0
BBX 5 11 0 -2
BITMAP
78
D0
D0
D0
D0
50
50
50
50
50
50
ENDCHAR
STARTCHAR middot
ENCODING 183
SWIDTH 272 0
DWIDTH 3 0
BBX 1 1 1 3
BITMAP
80
ENDCHAR
STARTCHAR cedilla
ENCODING 184
SWIDTH 272 0
DWIDTH 3 0
BBX 3 3 0 -3
BITMAP
E0
20
E0
ENDCHAR
STARTCHAR onesuperior
ENCODING 185
SWIDTH 272 0
DWIDTH 3 0
BBX 2 4 0 5
BITMAP
40
C0
40
40
ENDCHAR
STARTCHAR ordmasculine
ENCODING 186
SWIDTH 298 0
DWIDTH 4 0
BBX 3 4 0 5
BITMAP
E0
A0
A0
E0
ENDCHAR
STARTCHAR guillemotright
ENCODING 187
SWIDTH 456 0
DWIDTH 5 0
BBX 6 6 0 0
BITMAP
90
D8
48
6C
48
D8
ENDCHAR
STARTCHAR onequarter
ENCODING 188
SWIDTH 684 0
DWIDTH 8 0
BBX 8 9 0 0
BITMAP
42
C4
44
48
10
12
26
27
42
ENDCHAR
STARTCHAR onehalf
ENCODING 189
SWIDTH 684 0
DWIDTH 8 0
BBX 8 9 0 0
BITMAP
42
C4
44
48
10
17
21
22
47
ENDCHAR
STARTCHAR threequarters
ENCODING 190
SWIDTH 684 0
DWIDTH 8 0
BBX 8 9 0 0
BITMAP
E2
64
24
E8
10
12
26
27
42
ENDCHAR
STARTCHAR questiondown
ENCODING 191
SWIDTH 500 0
DWIDTH 6 0
BBX 5 8 0 -2
BITMAP
60
00
60
60
E0
C0
D8
70
ENDCHAR
STARTCHAR Agrave
ENCODING 192
SWIDTH 591 0
DWIDTH 7 0
BBX 6 12 0 0
BITMAP
30
10
00
30
30
78
48
48
78
CC
CC
CC
ENDCHAR
STARTCHAR Aacute
ENCODING 193
SWIDTH 591 0
DWIDTH 7 0
BBX 6 12 0 0
BITMAP
30
20
00
30
30
78
48
48
78
CC
CC
CC
ENDCHAR
STARTCHAR Acircumflex
ENCODING 194
SWIDTH 591 0
DWIDTH 7 0
BBX 6 12 0 0
BITMAP
38
6C
00
30
30
78
48
48
78
CC
CC
CC
ENDCHAR
STARTCHAR Atilde
ENCODING 195
SWIDTH 591 0
DWIDTH 7 0
BBX 6 12 0 0
BITMAP
68
58
00
30
30
78
48
48
78
CC
CC
CC
ENDCHAR
STARTCHAR Adieresis
ENCODING 196
SWIDTH 591 0
DWIDTH 7 0
BBX 6 11 0 0
BITMAP
50
00
30
30
78
48
48
78
CC
CC
CC
ENDCHAR
STARTCHAR Aring
ENCODING 197
SWIDTH 591 0
DWIDTH 7 0
BBX 6 12 0 0
BITMAP
30
30
00
30
30
78
48
48
78
CC
CC
CC
ENDCHAR
STARTCHAR AE
ENCODING 198
SWIDTH 819 0
DWIDTH 10 0
BBX 11 9 -1 0
BITMAP
1FE0
1E00
3600
37E0
3E00
6600
6600
6600
C7E0
ENDCHAR
STARTCHAR Ccedilla
ENCODING 199
SWIDTH 591 0
DWIDTH 7 0
BBX 6 12 0 -3
BITMAP
78
CC
C0
C0
C0
C0
CC
CC
78
70
10
70
ENDCHAR
STARTCHAR Egrave
ENCODING 200
SWIDTH 546 0
DWIDTH 6 0
BBX 5 12 0 0
BITMAP
60
20
00
F8
C0
C0
C0
F8
C0
C0
C0
F8
ENDCHAR
STARTCHAR Eacute
ENCODING 201
SWIDTH 546 0
DWIDTH 6 0
BBX 5 12 0 0
BITMAP
30
20
00
F8
C0
C0
C0
F8
C0
C0
C0
F8
ENDCHAR
STARTCHAR Ecircumflex
ENCODING 202
SWIDTH 546 0
DWIDTH 6 0
BBX 6 12 0 0
BITMAP
38
6C
00
F8
C0
C0
C0
F8
C0
C0
C0
F8
ENDCHAR
STARTCHAR Edieresis
ENCODING 203
SWIDTH 546 0
DWIDTH 6 0
BBX 5 11 0 0
BITMAP
50
00
F8
C0
C0
C0
F8
C0
C0
C0
F8
ENDCHAR
STARTCHAR Igrave
ENCODING 204
SWIDTH 228 0
DWIDTH 3 0
BBX 2 12 0 0
BITMAP
C0
40
00
C0
C0
C0
C0
C0
C0
C0
C0
C0
ENDCHAR
STARTCHAR Iacute
ENCODING 205
SWIDTH 228 0
DWIDTH 3 0
BBX 2 12 0 0
BITMAP
C0
80
00
C0
C0
C0
C0
C0
C0
C0
C0
C0
ENDCHAR
STARTCHAR Icircumflex
ENCODING 206
SWIDTH 228 0
DWIDTH 3 0
BBX 5 12 -1 0
BITMAP
70
D8
00
60
60
60
60
60
60
60
60
60
ENDCHAR
STARTCHAR Idieresis
ENCODING 207
SWIDTH 228 0
DWIDTH 3 0
BBX 3 11 -1 0
BITMAP
A0
00
60
60
60
60
60
60
60
60
60
ENDCHAR
STARTCHAR Eth
ENCODING 208
SWIDTH 591 0
DWIDTH 7 0
BBX 7 9 -1 0
BITMAP
7C
66
66
66
F6
66
66
66
7C
ENDCHAR
STARTCHAR Ntilde
ENCODING 209
SWIDTH 591 0
DWIDTH 7 0
BBX 6 12 0 0
BITMAP
68
58
00
CC
EC
EC
EC
FC
DC
DC
DC
CC
ENDCHAR
STARTCHAR Ograve
ENCODING 210
SWIDTH 638 0
DWIDTH 8 0
BBX 7 12 0 0
BITMAP
18
08
00
3C
6C
C6
C6
C6
C6
C6
6C
38
ENDCHAR
STARTCHAR Oacute
ENCODING 211
SWIDTH 638 0
DWIDTH 8 0
BBX 7 12 0 0
BITMAP
30
20
00
3C
6C
C6
C6
C6
C6
C6
6C
38
ENDCHAR
STARTCHAR Ocircumflex
ENCODING 212
SWIDTH 638 0
DWIDTH 8 0
BBX 7 12 0 0
BITMAP
38
6C
00
3C
6C
C6
C6
C6
C6
C6
6C
38
ENDCHAR
STARTCHAR Otilde
ENCODING 213
SWIDTH 638 0
DWIDTH 8 0
BBX 7 12 0 0
BITMAP
68
58
00
3C
6C
C6
C6
C6
C6
C6
6C
38
ENDCHAR
STARTCHAR Odieresis
ENCODING 214
SWIDTH 638 0
DWIDTH 8 0
BBX 7 11 0 0
BITMAP
28
00
3C
6C
C6
C6
C6
C6
C6
6C
38
ENDCHAR
STARTCHAR multiply
ENCODING 215
SWIDTH 479 0
DWIDTH 6 0
BBX 5 6 0 1
BITMAP
50
D8
70
70
D8
50
ENDCHAR
STARTCHAR Oslash
ENCODING 216
SWIDTH 638 0
DWIDTH 8 0
BBX 7 9 0 0
BITMAP
3A
6C
CE
DE
D6
F6
E6
6C
B8
ENDCHAR
STARTCHAR Ugrave
ENCODING 217
SWIDTH 591 0
DWIDTH 7 0
BBX 6 12 0 0
BITMAP
30
10
00
CC
CC
CC
CC
CC
CC
CC
CC
78
ENDCHAR
STARTCHAR Uacute
ENCODING 218
SWIDTH 591 0
DWIDTH 7 0
BBX 6 12 0 0
BITMAP
30
20
00
CC
CC
CC
CC
CC
CC
CC
CC
78
ENDCHAR
STARTCHAR Ucircumflex
ENCODING 219
SWIDTH 591 0
DWIDTH 7 0
BBX 6 12 0 0
BITMAP
38
6C
00
CC
CC
CC
CC
CC
CC
CC
CC
78
ENDCHAR
STARTCHAR Udieresis
ENCODING 220
SWIDTH 591 0
DWIDTH 7 0
BBX 6 11 0 0
BITMAP
50
00
CC
CC
CC
CC
CC
CC
CC
CC
78
ENDCHAR
STARTCHAR Yacute
ENCODING 221
SWIDTH 546 0
DWIDTH 7 0
BBX 6 12 0 0
BITMAP
30
20
00
CC
CC
78
78
30
30
30
30
30
ENDCHAR
STARTCHAR Thorn
ENCODING 222
SWIDTH 546 0
DWIDTH 7 0
BBX 6 9 0 0
BITMAP
C0
C0
F8
CC
CC
CC
F8
C0
C0
ENDCHAR
STARTCHAR germandbls
ENCODING 223
SWIDTH 500 0
DWIDTH 6 0
BBX 6 9 0 0
BITMAP
70
D8
D8
F0
F0
D8
CC
CC
D8
ENDCHAR
STARTCHAR agrave
ENCODING 224
SWIDTH 456 0
DWIDTH 5 0
BBX 4 9 0 0
BITMAP
60
20
00
E0
30
70
B0
B0
F0
ENDCHAR
STARTCHAR aacute
ENCODING 225
SWIDTH 456 0
DWIDTH 5 0
BBX 4 9 0 0
BITMAP
60
40
00
E0
30
70
B0
B0
F0
ENDCHAR
STARTCHAR acircumflex
ENCODING 226
SWIDTH 456 0
DWIDTH 5 0
BBX 5 9 0 0
BITMAP
70
D8
00
E0
30
70
B0
B0
F0
ENDCHAR
STARTCHAR atilde
ENCODING 227
SWIDTH 456 0
DWIDTH 5 0
BBX 4 9 0 0
BITMAP
D0
B0
00
E0
30
70
B0
B0
F0
ENDCHAR
STARTCHAR adieresis
ENCODING 228
SWIDTH 456 0
DWIDTH 5 0
BBX 4 8 0 0
BITMAP
A0
00
E0
30
70
B0
B0
F0
ENDCHAR
STARTCHAR aring
ENCODING 229
SWIDTH 456 0
DWIDTH 5 0
BBX 4 9 0 0
BITMAP
60
60
00
E0
30
70
B0
B0
F0
ENDCHAR
STARTCHAR ae
ENCODING 230
SWIDTH 729 0
DWIDTH 9 0
BBX 8 6 0 0
BITMAP
FE
1B
7F
D8
DB
EE
ENDCHAR
STARTCHAR ccedilla
ENCODING 231
SWIDTH 456 0
DWIDTH 5 0
BBX 4 9 0 -3
BITMAP
60
D0
C0
C0
D0
60
E0
20
E0
ENDCHAR
STARTCHAR egrave
ENCODING 232
SWIDTH 456 0
DWIDTH 5 0
BBX 4 9 0 0
BITMAP
60
20
00
60
D0
F0
C0
D0
60
ENDCHAR
STARTCHAR eacute
ENCODING 233
SWIDTH 456 0
DWIDTH 5 0
BBX 4 9 0 0
BITMAP
60
40
00
60
D0
F0
C0
D0
60
ENDCHAR
STARTCHAR ecircumflex
ENCODING 234
SWIDTH 456 0
DWIDTH 5 0
BBX 5 9 0 0
BITMAP
70
D8
00
60
D0
F0
C0
D0
60
ENDCHAR
STARTCHAR edieresis
ENCODING 235
SWIDTH 456 0
DWIDTH 5 0
BBX 4 8 0 0
BITMAP
A0
00
60
D0
F0
C0
D0
60
ENDCHAR
STARTCHAR igrave
ENCODING 236
SWIDTH 228 0
DWIDTH 3 0
BBX 2 9 0 0
BITMAP
C0
40
00
C0
C0
C0
C0
C0
C0
ENDCHAR
STARTCHAR iacute
ENCODING 237
SWIDTH 228 0
DWIDTH 3 0
BBX 2 9 0 0
BITMAP
C0
80
00
C0
C0
C0
C0
C0
C0
ENDCHAR
STARTCHAR icircumflex
ENCODING 238
SWIDTH 228 0
DWIDTH 3 0
BBX 5 9 -1 0
BITMAP
70
D8
00
60
60
60
60
60
60
ENDCHAR
STARTCHAR idieresis
ENCODING 239
SWIDTH 228 0
DWIDTH 3 0
BBX 3 8 -1 0
BITMAP
A0
00
60
60
60
60
60
60
ENDCHAR
STARTCHAR eth
ENCODING 240
SWIDTH 500 0
DWIDTH 6 0
BBX 5 9 0 0
BITMAP
30
30
50
78
D8
D8
D8
D8
70
ENDCHAR
STARTCHAR ntilde
ENCODING 241
SWIDTH 500 0
DWIDTH 6 0
BBX 5 9 0 0
BITMAP
D0
B0
00
F0
D8
D8
D8
D8
D8
ENDCHAR
STARTCHAR ograve
ENCODING 242
SWIDTH 500 0
DWIDTH 6 0
BBX 5 9 0 0
BITMAP
30
10
00
70
D8
D8
D8
D8
70
ENDCHAR
STARTCHAR oacute
ENCODING 243
SWIDTH 500 0
DWIDTH 6 0
BBX 5 9 0 0
BITMAP
60
40
00
70
D8
D8
D8
D8
70
ENDCHAR
STARTCHAR ocircumflex
ENCODING 244
SWIDTH 500 0
DWIDTH 6 0
BBX 5 9 0 0
BITMAP
70
D8
00
70
D8
D8
D8
D8
70
ENDCHAR
STARTCHAR otilde
ENCODING 245
SWIDTH 500 0
DWIDTH 6 0
BBX 5 9 0 0
BITMAP
D0
B0
00
70
D8
D8
D8
D8
70
ENDCHAR
STARTCHAR odieresis
ENCODING 246
SWIDTH 500 0
DWIDTH 6 0
BBX 5 8 0 0
BITMAP
50
00
70
D8
D8
D8
D8
70
ENDCHAR
STARTCHAR divide
ENCODING 247
SWIDTH 548 0
DWIDTH 7 0
BBX 6 6 0 1
BITMAP
30
00
FC
FC
00
30
ENDCHAR
STARTCHAR oslash
ENCODING 248
SWIDTH 500 0
DWIDTH 6 0
BBX 5 6 0 0
BITMAP
78
D8
F8
F8
D8
F0
ENDCHAR
STARTCHAR ugrave
ENCODING 249
SWIDTH 500 0
DWIDTH 6 0
BBX 5 9 0 0
BITMAP
30
10
00
D8
D8
D8
D8
D8
78
ENDCHAR
STARTCHAR uacute
ENCODING 250
SWIDTH 500 0
DWIDTH 6 0
BBX 5 9 0 0
BITMAP
60
40
00
D8
D8
D8
D8
D8
78
ENDCHAR
STARTCHAR ucircumflex
ENCODING 251
SWIDTH 500 0
DWIDTH 6 0
BBX 5 9 0 0
BITMAP
70
D8
00
D8
D8
D8
D8
D8
78
ENDCHAR
STARTCHAR udieresis
ENCODING 252
SWIDTH 500 0
DWIDTH 6 0
BBX 5 8 0 0
BITMAP
50
00
D8
D8
D8
D8
D8
78
ENDCHAR
STARTCHAR yacute
ENCODING 253
SWIDTH 456 0
DWIDTH 5 0
BBX 5 11 0 -2
BITMAP
60
40
00
D8
D8
50
70
70
20
20
C0
ENDCHAR
STARTCHAR thorn
ENCODING 254
SWIDTH 500 0
DWIDTH 6 0
BBX 5 11 0 -2
BITMAP
C0
C0
C0
F0
D8
D8
D8
D8
F0
C0
C0
ENDCHAR
STARTCHAR ydieresis
ENCODING 255
SWIDTH 456 0
DWIDTH 5 0
BBX 5 10 0 -2
BITMAP
50
00
D8
D8
50
70
70
20
20
C0
ENDCHAR
STARTCHAR Amacron
ENCODING 256
SWIDTH 591 0
DWIDTH 7 0
BBX 6 11 0 0
BITMAP
70
00
30
30
78
48
48
78
CC
CC
CC
ENDCHAR
STARTCHAR amacron
ENCODING 257
SWIDTH 456 0
DWIDTH 5 0
BBX 4 8 0 0
BITMAP
E0
00
E0
30
70
B0
B0
F0
ENDCHAR
STARTCHAR Abreve
ENCODING 258
SWIDTH 591 0
DWIDTH 7 0
BBX 6 12 0 0
BITMAP
50
70
00
30
30
78
48
48
78
CC
CC
CC
ENDCHAR
STARTCHAR abreve
ENCODING 259
SWIDTH 456 0
DWIDTH 5 0
BBX 4 9 0 0
BITMAP
A0
E0
00
E0
30
70
B0
B0
F0
ENDCHAR
STARTCHAR Aogonek
ENCODING 260
SWIDTH 591 0
DWIDTH 7 0
BBX 7 11 0 -2
BITMAP
30
30
78
48
48
78
CC
CC
CC
04
06
ENDCHAR
STARTCHAR aogonek
ENCODING 261
SWIDTH 456 0
DWIDTH 5 0
BBX 5 8 0 -2
BITMAP
E0
30
70
B0
B0
F0
10
18
ENDCHAR
STARTCHAR Cacute
ENCODING 262
SWIDTH 591 0
DWIDTH 7 0
BBX 6 12 0 0
BITMAP
30
20
00
78
CC
C0
C0
C0
C0
CC
CC
78
ENDCHAR
STARTCHAR cacute
ENCODING 263
SWIDTH 456 0
DWIDTH 5 0
BBX 4 9 0 0
BITMAP
60
40
00
60
D0
C0
C0
D0
60
ENDCHAR
STARTCHAR Ccircumflex
ENCODING 264
SWIDTH 591 0
DWIDTH 7 0
BBX 6 12 0 0
BITMAP
38
6C
00
78
CC
C0
C0
C0
C0
CC
CC
78
ENDCHAR
STARTCHAR ccircumflex
ENCODING 265
SWIDTH 456 0
DWIDTH 5 0
BBX 5 9 0 0
BITMAP
70
D8
00
60
D0
C0
C0
D0
60
ENDCHAR
STARTCHAR Cdot
ENCODING 266
SWIDTH 591 0
DWIDTH 7 0
BBX 6 11 0 0
BITMAP
30
00
78
CC
C0
C0
C0
C0
CC
CC
78
ENDCHAR
STARTCHAR cdot
ENCODING 267
SWIDTH 456 0
DWIDTH 5 0
BBX 4 8 0 0
BITMAP
60
00
60
D0
C0
C0
D0
60
ENDCHAR
STARTCHAR Ccaron
ENCODING 268
SWIDTH 591 0
DWIDTH 7 0
BBX 6 12 0 0
BITMAP
6C
38
00
78
CC
C0
C0
C0
C0
CC
CC
78
ENDCHAR
STARTCHAR ccaron
ENCODING 269
SWIDTH 456 0
DWIDTH 5 0
BBX 5 9 0 0
BITMAP
D8
70
00
60
D0
C0
C0
D0
60
ENDCHAR
STARTCHAR Dcaron
ENCODING 270
SWIDTH 591 0
DWIDTH 7 0
BBX 6 12 0 0
BITMAP
D8
70
00
F8
CC
CC
CC
CC
CC
CC
CC
F8
ENDCHAR
STARTCHAR dcaron
ENCODING 271
SWIDTH 588 0
DWIDTH 7 0
BBX 8 9 0 0
BITMAP
1B
19
1A
78
D8
D8
D8
D8
78
ENDCHAR
STARTCHAR Dslash
ENCODING 272
SWIDTH 591 0
DWIDTH 7 0
BBX 7 9 -1 0
BITMAP
7C
66
66
66
F6
66
66
66
7C
ENDCHAR
STARTCHAR dmacron
ENCODING 273
SWIDTH 503 0
DWIDTH 6 0
BBX 6 9 0 0
BITMAP
18
3C
18
78
D8
D8
D8
D8
78
ENDCHAR
STARTCHAR Emacron
ENCODING 274
SWIDTH 546 0
DWIDTH 6 0
BBX 5 11 0 0
BITMAP
70
00
F8
C0
C0
C0
F8
C0
C0
C0
F8
ENDCHAR
STARTCHAR emacron
ENCODING 275
SWIDTH 456 0
DWIDTH 5 0
BBX 4 8 0 0
BITMAP
E0
00
60
D0
F0
C0
D0
60
ENDCHAR
STARTCHAR Ebreve
ENCODING 276
SWIDTH 546 0
DWIDTH 6 0
BBX 5 12 0 0
BITMAP
50
70
00
F8
C0
C0
C0
F8
C0
C0
C0
F8
ENDCHAR
STARTCHAR ebreve
ENCODING 277
SWIDTH 456 0
DWIDTH 5 0
BBX 4 9 0 0
BITMAP
A0
E0
00
60
D0
F0
C0
D0
60
ENDCHAR
STARTCHAR Edot
ENCODING 278
SWIDTH 546 0
DWIDTH 6 0
BBX 5 11 0 0
BITMAP
30
00
F8
C0
C0
C0
F8
C0
C0
C0
F8
ENDCHAR
STARTCHAR edot
ENCODING 279
SWIDTH 456 0
DWIDTH 5 0
BBX 4 8 0 0
BITMAP
60
00
60
D0
F0
C0
D0
60
ENDCHAR
STARTCHAR Eogonek
ENCODING 280
SWIDTH 546 0
DWIDTH 6 0
BBX 5 11 0 -2
BITMAP
F8
C0
C0
C0
F8
C0
C0
C0
F8
10
18
ENDCHAR
STARTCHAR eogonek
ENCODING 281
SWIDTH 456 0
DWIDTH 5 0
BBX 4 8 0 -2
BITMAP
60
D0
F0
C0
D0
60
20
30
ENDCHAR
STARTCHAR Ecaron
ENCODING 282
SWIDTH 546 0
DWIDTH 6 0
BBX 6 12 0 0
BITMAP
6C
38
00
F8
C0
C0
C0
F8
C0
C0
C0
F8
ENDCHAR
STARTCHAR ecaron
ENCODING 283
SWIDTH 456 0
DWIDTH 5 0
BBX 5 9 0 0
BITMAP
D8
70
00
60
D0
F0
C0
D0
60
ENDCHAR
STARTCHAR Gcircumflex
ENCODING 284
SWIDTH 638 0
DWIDTH 7 0
BBX 6 12 0 0
BITMAP
38
6C
00
78
CC
C0
C0
DC
CC
CC
CC
78
ENDCHAR
STARTCHAR gcircumflex
ENCODING 285
SWIDTH 500 0
DWIDTH 6 0
BBX 5 11 0 -2
BITMAP
70
D8
00
78
D8
D8
D8
D8
78
D8
70
ENDCHAR
STARTCHAR Gbreve
ENCODING 286
SWIDTH 638 0
DWIDTH 7 0
BBX 6 12 0 0
BITMAP
50
70
00
78
CC
C0
C0
DC
CC
CC
CC
78
ENDCHAR
STARTCHAR gbreve
ENCODING 287
SWIDTH 500 0
DWIDTH 6 0
BBX 5 11 0 -2
BITMAP
50
70
00
78
D8
D8
D8
D8
78
D8
70
ENDCHAR
STARTCHAR Gdot
ENCODING 288
SWIDTH 638 0
DWIDTH 7 0
BBX 6 11 0 0
BITMAP
30
00
78
CC
C0
C0
DC
CC
CC
CC
78
ENDCHAR
STARTCHAR gdot
ENCODING 289
SWIDTH 500 0
DWIDTH 6 0
BBX 5 10 0 -2
BITMAP
60
00
78
D8
D8
D8
D8
78
D8
70
ENDCHAR
STARTCHAR Gcedilla
ENCODING 290
SWIDTH 638 0
DWIDTH 7 0
BBX 6 12 0 -3
BITMAP
78
CC
C0
C0
DC
CC
CC
CC
78
70
10
70
ENDCHAR
STARTCHAR gcedilla
ENCODING 291
SWIDTH 500 0
DWIDTH 6 0
BBX 5 12 0 -2
BITMAP
20
40
60
00
78
D8
D8
D8
D8
78
D8
70
ENDCHAR
STARTCHAR Hcircumflex
ENCODING 292
SWIDTH 591 0
DWIDTH 7 0
BBX 6 12 0 0
BITMAP
38
6C
00
CC
CC
CC
CC
FC
CC
CC
CC
CC
ENDCHAR
STARTCHAR hcircumflex
ENCODING 293
SWIDTH 500 0
DWIDTH 6 0
BBX 6 12 0 0
BITMAP
38
6C
00
C0
C0
C0
F0
D8
D8
D8
D8
D8
ENDCHAR
STARTCHAR Hbar
ENCODING 294
SWIDTH 591 0
DWIDTH 7 0
BBX 8 9 -1 0
BITMAP
66
66
FF
66
7E
66
66
66
66
ENDCHAR
STARTCHAR hbar
ENCODING 295
SWIDTH 500 0
DWIDTH 6 0
BBX 5 9 0 0
BITMAP
C0
E0
C0
F8
D8
D8
D8
D8
D8
ENDCHAR
STARTCHAR Itilde
ENCODING 296
SWIDTH 228 0
DWIDTH 3 0
BBX 4 12 -1 0
BITMAP
D0
B0
00
60
60
60
60
60
60
60
60
60
ENDCHAR
STARTCHAR itilde
ENCODING 297
SWIDTH 228 0
DWIDTH 3 0
BBX 4 9 -1 0
BITMAP
D0
B0
00
60
60
60
60
60
60
ENDCHAR
STARTCHAR Imacron
ENCODING 298
SWIDTH 228 0
DWIDTH 3 0
BBX 3 11 -1 0
BITMAP
E0
00
60
60
60
60
60
60
60
60
60
ENDCHAR
STARTCHAR imacron
ENCODING 299
SWIDTH 228 0
DWIDTH 3 0
BBX 3 8 -1 0
BITMAP
E0
00
60
60
60
60
60
60
ENDCHAR
STARTCHAR Ibreve
ENCODING 300
SWIDTH 228 0
DWIDTH 3 0
BBX 3 12 -1 0
BITMAP
A0
E0
00
60
60
60
60
60
60
60
60
60
ENDCHAR
STARTCHAR ibreve
ENCODING 301
SWIDTH 228 0
DWIDTH 3 0
BBX 3 9 -1 0
BITMAP
A0
E0
00
60
60
60
60
60
60
ENDCHAR
STARTCHAR Iogonek
ENCODING 302
SWIDTH 228 0
DWIDTH 3 0
BBX 2 11 0 -2
BITMAP
C0
C0
C0
C0
C0
C0
C0
C0
C0
80
C0
ENDCHAR
STARTCHAR iogonek
ENCODING 303
SWIDTH 228 0
DWIDTH 3 0
BBX 2 11 0 -2
BITMAP
C0
C0
00
C0
C0
C0
C0
C0
C0
80
C0
ENDCHAR
STARTCHAR Idot
ENCODING 304
SWIDTH 228 0
DWIDTH 3 0
BBX 2 11 0 0
BITMAP
C0
00
C0
C0
C0
C0
C0
C0
C0
C0
C0
ENDCHAR
STARTCHAR dotlessi
ENCODING 305
SWIDTH 228 0
DWIDTH 3 0
BBX 2 6 0 0
BITMAP
C0
C0
C0
C0
C0
C0
ENDCHAR
STARTCHAR IJ
ENCODING 306
SWIDTH 684 0
DWIDTH 8 0
BBX 7 9 0 0
BITMAP
C6
C6
C6
C6
C6
C6
D6
D6
CC
ENDCHAR
STARTCHAR ij
ENCODING 307
SWIDTH 456 0
DWIDTH 6 0
BBX 5 11 0 -2
BITMAP
D8
D8
00
D8
D8
D8
D8
D8
D8
18
30
ENDCHAR
STARTCHAR Jcircumflex
ENCODING 308
SWIDTH 456 0
DWIDTH 5 0
BBX 6 12 0 0
BITMAP
38
6C
00
30
30
30
30
30
30
B0
B0
60
ENDCHAR
STARTCHAR jcircumflex
ENCODING 309
SWIDTH 228 0
DWIDTH 3 0
BBX 5 11 -1 -2
BITMAP
70
D8
00
60
60
60
60
60
60
60
E0
ENDCHAR
STARTCHAR Kcedilla
ENCODING 310
SWIDTH 591 0
DWIDTH 7 0
BBX 6 12 0 -3
BITMAP
CC
D8
D8
F0
F8
D8
CC
CC
CC
38
08
38
ENDCHAR
STARTCHAR kcedilla
ENCODING 311
SWIDTH 456 0
DWIDTH 5 0
BBX 5 12 0 -3
BITMAP
C0
C0
C0
D0
F0
F0
F0
D8
D8
70
10
70
ENDCHAR
STARTCHAR kgreenlandic
ENCODING 312
SWIDTH 457 0
DWIDTH 5 0
BBX 5 6 0 0
BITMAP
D8
F0
F0
F0
D8
D8
ENDCHAR
STARTCHAR Lacute
ENCODING 313
SWIDTH 500 0
DWIDTH 6 0
BBX 5 12 0 0
BITMAP
60
40
00
C0
C0
C0
C0
C0
C0
C0
C0
F8
ENDCHAR
STARTCHAR lacute
ENCODING 314
SWIDTH 228 0
DWIDTH 3 0
BBX 2 12 0 0
BITMAP
C0
80
00
C0
C0
C0
C0
C0
C0
C0
C0
C0
ENDCHAR
STARTCHAR Lcedilla
ENCODING 315
SWIDTH 500 0
DWIDTH 6 0
BBX 5 12 0 -3
BITMAP
C0
C0
C0
C0
C0
C0
C0
C0
F8
70
10
70
ENDCHAR
STARTCHAR lcedilla
ENCODING 316
SWIDTH 228 0
DWIDTH 3 0
BBX 3 12 -1 -3
BITMAP
60
60
60
60
60
60
60
60
60
E0
20
E0
ENDCHAR
STARTCHAR Lcaron
ENCODING 317
SWIDTH 500 0
DWIDTH 6 0
BBX 5 9 0 0
BITMAP
D8
C8
D0
C0
C0
C0
C0
C0
F8
ENDCHAR
STARTCHAR lcaron
ENCODING 318
SWIDTH 315 0
DWIDTH 4 0
BBX 5 9 0 0
BITMAP
D8
C8
D0
C0
C0
C0
C0
C0
C0
ENDCHAR
STARTCHAR Ldot
ENCODING 319
SWIDTH 500 0
DWIDTH 6 0
BBX 5 9 0 0
BITMAP
C0
C0
C0
C0
C0
D8
C0
C0
F8
ENDCHAR
STARTCHAR ldot
ENCODING 320
SWIDTH 333 0
DWIDTH 4 0
BBX 5 9 0 0
BITMAP
C0
C0
C0
C0
C0
D8
C0
C0
C0
ENDCHAR
STARTCHAR Lslash
ENCODING 321
SWIDTH 500 0
DWIDTH 6 0
BBX 6 9 -1 0
BITMAP
60
60
70
70
E0
E0
60
60
7C
ENDCHAR
STARTCHAR lslash
ENCODING 322
SWIDTH 228 0
DWIDTH 3 0
BBX 4 9 -1 0
BITMAP
60
60
60
70
60
E0
60
60
60
ENDCHAR
STARTCHAR Nacute
ENCODING 323
SWIDTH 591 0
DWIDTH 7 0
BBX 6 12 0 0
BITMAP
30
20
00
CC
EC
EC
EC
FC
DC
DC
DC
CC
ENDCHAR
STARTCHAR nacute
ENCODING 324
SWIDTH 500 0
DWIDTH 6 0
BBX 5 9 0 0
BITMAP
60
40
00
F0
D8
D8
D8
D8
D8
ENDCHAR
STARTCHAR Ncedilla
ENCODING 325
SWIDTH 591 0
DWIDTH 7 0
BBX 6 12 0 -3
BITMAP
CC
EC
EC
EC
FC
DC
DC
DC
CC
70
10
70
ENDCHAR
STARTCHAR ncedilla
ENCODING 326
SWIDTH 500 0
DWIDTH 6 0
BBX 5 9 0 -3
BITMAP
F0
D8
D8
D8
D8
D8
70
10
70
ENDCHAR
STARTCHAR Ncaron
ENCODING 327
SWIDTH 591 0
DWIDTH 7 0
BBX 6 12 0 0
BITMAP
6C
38
00
CC
EC
EC
EC
FC
DC
DC
DC
CC
ENDCHAR
STARTCHAR ncaron
ENCODING 328
SWIDTH 500 0
DWIDTH 6 0
BBX 5 9 0 0
BITMAP
D8
70
00
F0
D8
D8
D8
D8
D8
ENDCHAR
STARTCHAR napostrophe
ENCODING 329
SWIDTH 675 0
DWIDTH 8 0
BBX 7 9 0 0
BITMAP
C0
40
80
3C
36
36
36
36
36
ENDCHAR
STARTCHAR Eng
ENCODING 330
SWIDTH 592 0
DWIDTH 7 0
BBX 6 9 0 0
BITMAP
F8
CC
CC
CC
CC
CC
CC
CC
D8
ENDCHAR
STARTCHAR eng
ENCODING 331
SWIDTH 500 0
DWIDTH 6 0
BBX 5 8 0 -2
BITMAP
F0
D8
D8
D8
D8
D8
18
30
ENDCHAR
STARTCHAR Omacron
ENCODING 332
SWIDTH 638 0
DWIDTH 8 0
BBX 7 11 0 0
BITMAP
38
00
3C
6C
C6
C6
C6
C6
C6
6C
38
ENDCHAR
STARTCHAR omacron
ENCODING 333
SWIDTH 500 0
DWIDTH 6 0
BBX 5 8 0 0
BITMAP
70
00
70
D8
D8
D8
D8
70
ENDCHAR
STARTCHAR Obreve
ENCODING 334
SWIDTH 638 0
DWIDTH 8 0
BBX 7 12 0 0
BITMAP
28
38
00
3C
6C
C6
C6
C6
C6
C6
6C
38
ENDCHAR
STARTCHAR obreve
ENCODING 335
SWIDTH 500 0
DWIDTH 6 0
BBX 5 9 0 0
BITMAP
50
70
00
70
D8
D8
D8
D8
70
ENDCHAR
STARTCHAR Odblacute
ENCODING 336
SWIDTH 638 0
DWIDTH 8 0
BBX 7 12 0 0
BITMAP
3C
28
00
3C
6C
C6
C6
C6
C6
C6
6C
38
ENDCHAR
STARTCHAR odblacute
ENCODING 337
SWIDTH 500 0
DWIDTH 6 0
BBX 5 9 0 0
BITMAP
78
50
00
70
D8
D8
D8
D8
70
ENDCHAR
STARTCHAR OE
ENCODING 338
SWIDTH 819 0
DWIDTH 10 0
BBX 9 9 0 0
BITMAP
7F80
CC00
CC00
CC00
CF80
CC00
CC00
CC00
7F80
ENDCHAR
STARTCHAR oe
ENCODING 339
SWIDTH 773 0
DWIDTH 9 0
BBX 8 6 0 0
BITMAP
7E
DB
DF
D8
DB
7E
ENDCHAR
STARTCHAR Racute
ENCODING 340
SWIDTH 591 0
DWIDTH 7 0
BBX 7 12 0 0
BITMAP
30
20
00
F8
CC
CC
CC
F8
D8
CC
CC
C6
ENDCHAR
STARTCHAR racute
ENCODING 341
SWIDTH 318 0
DWIDTH 4 0
BBX 4 9 0 0
BITMAP
60
40
00
F0
C0
C0
C0
C0
C0
ENDCHAR
STARTCHAR Rcedilla
ENCODING 342
SWIDTH 591 0
DWIDTH 7 0
BBX 7 12 0 -3
BITMAP
F8
CC
CC
CC
F8
D8
CC
CC
C6
70
10
70
ENDCHAR
STARTCHAR rcedilla
ENCODING 343
SWIDTH 318 0
DWIDTH 4 0
BBX 4 9 0 -3
BITMAP
F0
C0
C0
C0
C0
C0
E0
20
E0
ENDCHAR
STARTCHAR Rcaron
ENCODING 344
SWIDTH 591 0
DWIDTH 7 0
BBX 7 12 0 0
BITMAP
6C
38
00
F8
CC
CC
CC
F8
D8
CC
CC
C6
ENDCHAR
STARTCHAR rcaron
ENCODING 345
SWIDTH 318 0
DWIDTH 4 0
BBX 5 9 -1 0
BITMAP
D8
70
00
78
60
60
60
60
60
ENDCHAR
STARTCHAR Sacute
ENCODING 346
SWIDTH 546 0
DWIDTH 7 0
BBX 6 12 0 0
BITMAP
18
10
00
78
CC
CC
F0
78
1C
CC
CC
78
ENDCHAR
STARTCHAR sacute
ENCODING 347
SWIDTH 456 0
DWIDTH 5 0
BBX 4 9 0 0
BITMAP
60
40
00
60
D0
F0
30
B0
60
ENDCHAR
STARTCHAR Scircumflex
ENCODING 348
SWIDTH 546 0
DWIDTH 7 0
BBX 6 12 0 0
BITMAP
38
6C
00
78
CC
CC
F0
78
1C
CC
CC
78
ENDCHAR
STARTCHAR scircumflex
ENCODING 349
SWIDTH 456 0
DWIDTH 5 0
BBX 5 9 0 0
BITMAP
70
D8
00
60
D0
F0
30
B0
60
ENDCHAR
STARTCHAR Scedilla
ENCODING 350
SWIDTH 546 0
DWIDTH 7 0
BBX 6 12 0 -3
BITMAP
78
CC
CC
F0
78
1C
CC
CC
78
70
10
70
ENDCHAR
STARTCHAR scedilla
ENCODING 351
SWIDTH 456 0
DWIDTH 5 0
BBX 4 9 0 -3
BITMAP
60
D0
F0
30
B0
60
E0
20
E0
ENDCHAR
STARTCHAR Scaron
ENCODING 352
SWIDTH 546 0
DWIDTH 7 0
BBX 6 12 0 0
BITMAP
6C
38
00
78
CC
CC
F0
78
1C
CC
CC
78
ENDCHAR
STARTCHAR scaron
ENCODING 353
SWIDTH 456 0
DWIDTH 5 0
BBX 5 9 0 0
BITMAP
D8
70
00
60
D0
F0
30
B0
60
ENDCHAR
STARTCHAR Tcedilla
ENCODING 354
SWIDTH 500 0
DWIDTH 7 0
BBX 6 12 0 -3
BITMAP
FC
30
30
30
30
30
30
30
30
38
08
38
ENDCHAR
STARTCHAR tcedilla
ENCODING 355
SWIDTH 272 0
DWIDTH 3 0
BBX 4 11 -1 -3
BITMAP
20
60
F0
60
60
60
60
30
70
10
70
ENDCHAR
STARTCHAR Tcaron
ENCODING 356
SWIDTH 500 0
DWIDTH 7 0
BBX 6 12 0 0
BITMAP
D8
70
00
FC
30
30
30
30
30
30
30
30
ENDCHAR
STARTCHAR tcaron
ENCODING 357
SWIDTH 393 0
DWIDTH 5 0
BBX 7 9 -1 0
BITMAP
06
22
64
F0
60
60
60
60
30
ENDCHAR
STARTCHAR Tbar
ENCODING 358
SWIDTH 500 0
DWIDTH 6 0
BBX 6 9 0 0
BITMAP
FC
30
30
30
78
30
30
30
30
ENDCHAR
STARTCHAR tbar
ENCODING 359
SWIDTH 272 0
DWIDTH 3 0
BBX 4 8 -1 0
BITMAP
20
60
F0
60
60
F0
60
70
ENDCHAR
STARTCHAR Utilde
ENCODING 360
SWIDTH 591 0
DWIDTH 7 0
BBX 6 12 0 0
BITMAP
68
58
00
CC
CC
CC
CC
CC
CC
CC
CC
78
ENDCHAR
STARTCHAR utilde
ENCODING 361
SWIDTH 500 0
DWIDTH 6 0
BBX 5 9 0 0
BITMAP
D0
B0
00
D8
D8
D8
D8
D8
78
ENDCHAR
STARTCHAR Umacron
ENCODING 362
SWIDTH 591 0
DWIDTH 7 0
BBX 6 11 0 0
BITMAP
70
00
CC
CC
CC
CC
CC
CC
CC
CC
78
ENDCHAR
STARTCHAR umacron
ENCODING 363
SWIDTH 500 0
DWIDTH 6 0
BBX 5 8 0 0
BITMAP
70
00
D8
D8
D8
D8
D8
78
ENDCHAR
STARTCHAR Ubreve
ENCODING 364
SWIDTH 591 0
DWIDTH 7 0
BBX 6 12 0 0
BITMAP
50
70
00
CC
CC
CC
CC
CC
CC
CC
CC
78
ENDCHAR
STARTCHAR ubreve
ENCODING 365
SWIDTH 500 0
DWIDTH 6 0
BBX 5 9 0 0
BITMAP
50
70
00
D8
D8
D8
D8
D8
78
ENDCHAR
STARTCHAR Uring
ENCODING 366
SWIDTH 591 0
DWIDTH 7 0
BBX 6 12 0 0
BITMAP
30
30
00
CC
CC
CC
CC
CC
CC
CC
CC
78
ENDCHAR
STARTCHAR uring
ENCODING 367
SWIDTH 500 0
DWIDTH 6 0
BBX 5 9 0 0
BITMAP
60
60
00
D8
D8
D8
D8
D8
78
ENDCHAR
STARTCHAR Udblacute
ENCODING 368
SWIDTH 591 0
DWIDTH 7 0
BBX 6 12 0 0
BITMAP
3C
28
00
CC
CC
CC
CC
CC
CC
CC
CC
78
ENDCHAR
STARTCHAR udblacute
ENCODING 369
SWIDTH 500 0
DWIDTH 6 0
BBX 5 9 0 0
BITMAP
78
50
00
D8
D8
D8
D8
D8
78
ENDCHAR
STARTCHAR Uogonek
ENCODING 370
SWIDTH 591 0
DWIDTH 7 0
BBX 6 11 0 -2
BITMAP
CC
CC
CC
CC
CC
CC
CC
CC
78
20
30
ENDCHAR
STARTCHAR uogonek
ENCODING 371
SWIDTH 500 0
DWIDTH 6 0
BBX 5 8 0 -2
BITMAP
D8
D8
D8
D8
D8
78
10
18
ENDCHAR
STARTCHAR Wcircumflex
ENCODING 372
SWIDTH 773 0
DWIDTH 9 0
BBX 8 12 0 0
BITMAP
1C
36
00
DB
DB
DB
DB
DB
DB
EB
66
66
ENDCHAR
STARTCHAR wcircumflex
ENCODING 373
SWIDTH 638 0
DWIDTH 8 0
BBX 7 9 0 0
BITMAP
38
6C
00
D6
D6
D6
6C
6C
6C
ENDCHAR
STARTCHAR Ycircumflex
ENCODING 374
SWIDTH 546 0
DWIDTH 7 0
BBX 6 12 0 0
BITMAP
38
6C
00
CC
CC
78
78
30
30
30
30
30
ENDCHAR
STARTCHAR ycircumflex
ENCODING 375
SWIDTH 456 0
DWIDTH 5 0
BBX 5 11 0 -2
BITMAP
70
D8
00
D8
D8
50
70
70
20
20
C0
ENDCHAR
STARTCHAR Ydieresis
ENCODING 376
SWIDTH 546 0
DWIDTH 7 0
BBX 6 11 0 0
BITMAP
50
00
CC
CC
78
78
30
30
30
30
30
ENDCHAR
STARTCHAR Zacute
ENCODING 377
SWIDTH 500 0
DWIDTH 6 0
BBX 5 12 0 0
BITMAP
30
20
00
F8
18
30
30
60
60
60
C0
F8
ENDCHAR
STARTCHAR zacute
ENCODING 378
SWIDTH 410 0
DWIDTH 5 0
BBX 4 9 0 0
BITMAP
60
40
00
F0
30
60
60
C0
F0
ENDCHAR
STARTCHAR Zdot
ENCODING 379
SWIDTH 500 0
DWIDTH 6 0
BBX 5 11 0 0
BITMAP
60
00
F8
18
30
30
60
60
60
C0
F8
ENDCHAR
STARTCHAR zdot
ENCODING 380
SWIDTH 410 0
DWIDTH 5 0
BBX 4 8 0 0
BITMAP
60
00
F0
30
60
60
C0
F0
ENDCHAR
STARTCHAR Zcaron
ENCODING 381
SWIDTH 500 0
DWIDTH 6 0
BBX 5 12 0 0
BITMAP
D8
70
00
F8
18
30
30
60
60
60
C0
F8
ENDCHAR
STARTCHAR zcaron
ENCODING 382
SWIDTH 410 0
DWIDTH 5 0
BBX 6 9 0 0
BITMAP
6C
38
00
F0
30
60
60
C0
F0
ENDCHAR
STARTCHAR longs
ENCODING 383
SWIDTH 228 0
DWIDTH 3 0
BBX 4 9 0 0
BITMAP
70
C0
C0
C0
C0
C0
C0
C0
C0
ENDCHAR
STARTCHAR florin
ENCODING 402
SWIDTH 456 0
DWIDTH 5 0
BBX 6 11 -1 -2
BITMAP
1C
30
30
78
30
30
60
60
60
60
C0
ENDCHAR
STARTCHAR Aringacute
ENCODING 506
SWIDTH 610 0
DWIDTH 7 0
BBX 6 15 0 0
BITMAP
30
20
00
30
30
00
30
30
78
48
48
78
CC
CC
CC
ENDCHAR
STARTCHAR aringacute
ENCODING 507
SWIDTH 500 0
DWIDTH 6 0
BBX 4 12 0 0
BITMAP
30
20
00
60
60
00
E0
30
70
B0
B0
F0
ENDCHAR
STARTCHAR AEacute
ENCODING 508
SWIDTH 819 0
DWIDTH 10 0
BBX 11 12 -1 0
BITMAP
0300
0200
0000
1FE0
1E00
3600
37E0
3E00
6600
6600
6600
C7E0
ENDCHAR
STARTCHAR aeacute
ENCODING 509
SWIDTH 729 0
DWIDTH 9 0
BBX 8 9 0 0
BITMAP
0C
08
00
FE
1B
7F
D8
DB
EE
ENDCHAR
STARTCHAR Oslashacute
ENCODING 510
SWIDTH 638 0
DWIDTH 8 0
BBX 7 12 0 0
BITMAP
18
10
00
3A
6C
CE
DE
D6
F6
E6
6C
B8
ENDCHAR
STARTCHAR oslashacute
ENCODING 511
SWIDTH 500 0
DWIDTH 6 0
BBX 5 9 0 0
BITMAP
30
20
00
78
D8
F8
F8
D8
F0
ENDCHAR
STARTCHAR uni0218
ENCODING 536
SWIDTH 546 0
DWIDTH 7 0
BBX 6 13 0 -4
BITMAP
78
CC
CC
F0
78
1C
CC
CC
78
00
30
10
20
ENDCHAR
STARTCHAR uni0219
ENCODING 537
SWIDTH 456 0
DWIDTH 5 0
BBX 4 10 0 -4
BITMAP
60
D0
F0
30
B0
60
00
60
20
40
ENDCHAR
STARTCHAR uni021A
ENCODING 538
SWIDTH 500 0
DWIDTH 7 0
BBX 6 13 0 -4
BITMAP
FC
30
30
30
30
30
30
30
30
00
30
10
20
ENDCHAR
STARTCHAR uni021B
ENCODING 539
SWIDTH 272 0
DWIDTH 3 0
BBX 4 12 -1 -4
BITMAP
20
60
F0
60
60
60
60
30
00
60
20
40
ENDCHAR
STARTCHAR circumflex
ENCODING 710
SWIDTH 272 0
DWIDTH 5 0
BBX 5 2 0 7
BITMAP
70
D8
ENDCHAR
STARTCHAR caron
ENCODING 711
SWIDTH 272 0
DWIDTH 5 0
BBX 5 2 0 7
BITMAP
D8
70
ENDCHAR
STARTCHAR macron
ENCODING 713
SWIDTH 272 0
DWIDTH 3 0
BBX 3 1 0 7
BITMAP
E0
ENDCHAR
STARTCHAR breve
ENCODING 728
SWIDTH 272 0
DWIDTH 3 0
BBX 3 2 0 7
BITMAP
A0
E0
ENDCHAR
STARTCHAR dotaccent
ENCODING 729
SWIDTH 272 0
DWIDTH 4 0
BBX 2 1 1 7
BITMAP
C0
ENDCHAR
STARTCHAR ring
ENCODING 730
SWIDTH 272 0
DWIDTH 3 0
BBX 2 2 1 7
BITMAP
C0
C0
ENDCHAR
STARTCHAR ogonek
ENCODING 731
SWIDTH 272 0
DWIDTH 3 0
BBX 2 2 1 -2
BITMAP
80
C0
ENDCHAR
STARTCHAR tilde
ENCODING 732
SWIDTH 272 0
DWIDTH 4 0
BBX 4 2 0 7
BITMAP
D0
B0
ENDCHAR
STARTCHAR hungarumlaut
ENCODING 733
SWIDTH 272 0
DWIDTH 3 0
BBX 4 2 0 7
BITMAP
F0
A0
ENDCHAR
STARTCHAR semicolon.dup2
ENCODING 894
SWIDTH 272 0
DWIDTH 3 0
BBX 2 8 0 -2
BITMAP
C0
00
00
00
00
C0
40
80
ENDCHAR
STARTCHAR tonos
ENCODING 900
SWIDTH 272 0
DWIDTH 3 0
BBX 2 2 1 7
BITMAP
C0
80
ENDCHAR
STARTCHAR dieresistonos
ENCODING 901
SWIDTH 272 0
DWIDTH 3 0
BBX 5 2 -1 7
BITMAP
20
A8
ENDCHAR
STARTCHAR Alphatonos
ENCODING 902
SWIDTH 591 0
DWIDTH 7 0
BBX 6 9 0 0
BITMAP
F0
B0
78
48
48
78
CC
CC
CC
ENDCHAR
STARTCHAR anoteleia
ENCODING 903
SWIDTH 272 0
DWIDTH 3 0
BBX 2 1 1 5
BITMAP
C0
ENDCHAR
STARTCHAR Epsilontonos
ENCODING 904
SWIDTH 700 0
DWIDTH 8 0
BBX 6 9 1 0
BITMAP
FC
E0
60
60
7C
60
60
60
7C
ENDCHAR
STARTCHAR Etatonos
ENCODING 905
SWIDTH 743 0
DWIDTH 9 0
BBX 8 9 0 0
BITMAP
F3
B3
33
33
3F
33
33
33
33
ENDCHAR
STARTCHAR Iotatonos
ENCODING 906
SWIDTH 385 0
DWIDTH 5 0
BBX 4 9 0 0
BITMAP
F0
B0
30
30
30
30
30
30
30
ENDCHAR
STARTCHAR Omicrontonos
ENCODING 908
SWIDTH 674 0
DWIDTH 8 0
BBX 8 9 -1 0
BITMAP
DE
B6
63
63
63
63
63
36
1C
ENDCHAR
STARTCHAR Upsilontonos
ENCODING 910
SWIDTH 760 0
DWIDTH 9 0
BBX 9 9 0 0
BITMAP
D980
9980
0F00
0F00
0600
0600
0600
0600
0600
ENDCHAR
STARTCHAR Omegatonos
ENCODING 911
SWIDTH 687 0
DWIDTH 8 0
BBX 8 9 -1 0
BITMAP
DC
A2
63
63
63
63
63
36
77
ENDCHAR
STARTCHAR iotadieresistonos
ENCODING 912
SWIDTH 228 0
DWIDTH 3 0
BBX 5 9 -2 0
BITMAP
20
A8
00
30
30
30
30
30
30
ENDCHAR
STARTCHAR Alpha
ENCODING 913
SWIDTH 591 0
DWIDTH 7 0
BBX 6 9 0 0
BITMAP
30
30
78
48
48
78
CC
CC
CC
ENDCHAR
STARTCHAR Beta
ENCODING 914
SWIDTH 591 0
DWIDTH 7 0
BBX 6 9 0 0
BITMAP
F8
CC
CC
CC
F8
CC
CC
CC
F8
ENDCHAR
STARTCHAR Gamma
ENCODING 915
SWIDTH 493 0
DWIDTH 6 0
BBX 5 9 0 0
BITMAP
F8
C0
C0
C0
C0
C0
C0
C0
C0
ENDCHAR
STARTCHAR Delta
ENCODING 916
SWIDTH 588 0
DWIDTH 7 0
BBX 7 9 0 0
BITMAP
10
38
38
28
6C
6C
6C
C6
FE
ENDCHAR
STARTCHAR Epsilon
ENCODING 917
SWIDTH 546 0
DWIDTH 6 0
BBX 5 9 0 0
BITMAP
F8
C0
C0
C0
F8
C0
C0
C0
F8
ENDCHAR
STARTCHAR Zeta
ENCODING 918
SWIDTH 500 0
DWIDTH 6 0
BBX 5 9 0 0
BITMAP
F8
18
30
30
60
60
60
C0
F8
ENDCHAR
STARTCHAR Eta
ENCODING 919
SWIDTH 591 0
DWIDTH 7 0
BBX 6 9 0 0
BITMAP
CC
CC
CC
CC
FC
CC
CC
CC
CC
ENDCHAR
STARTCHAR Theta
ENCODING 920
SWIDTH 638 0
DWIDTH 8 0
BBX 7 9 0 0
BITMAP
38
6C
C6
C6
D6
C6
C6
6C
38
ENDCHAR
STARTCHAR Iota
ENCODING 921
SWIDTH 228 0
DWIDTH 3 0
BBX 2 9 0 0
BITMAP
C0
C0
C0
C0
C0
C0
C0
C0
C0
ENDCHAR
STARTCHAR Kappa
ENCODING 922
SWIDTH 591 0
DWIDTH 7 0
BBX 6 9 0 0
BITMAP
CC
D8
D8
F0
F8
D8
CC
CC
CC
ENDCHAR
STARTCHAR Lambda
ENCODING 923
SWIDTH 546 0
DWIDTH 7 0
BBX 7 9 0 0
BITMAP
10
38
38
28
6C
6C
6C
C6
C6
ENDCHAR
STARTCHAR Mu
ENCODING 924
SWIDTH 683 0
DWIDTH 8 0
BBX 7 9 0 0
BITMAP
C6
C6
C6
EE
EE
F6
D6
D6
D6
ENDCHAR
STARTCHAR Nu
ENCODING 925
SWIDTH 591 0
DWIDTH 7 0
BBX 6 9 0 0
BITMAP
CC
EC
EC
EC
FC
DC
DC
DC
CC
ENDCHAR
STARTCHAR Xi
ENCODING 926
SWIDTH 527 0
DWIDTH 6 0
BBX 5 9 0 0
BITMAP
F8
F8
00
70
70
00
00
F8
F8
ENDCHAR
STARTCHAR Omicron
ENCODING 927
SWIDTH 638 0
DWIDTH 8 0
BBX 7 9 0 0
BITMAP
3C
6C
C6
C6
C6
C6
C6
6C
38
ENDCHAR
STARTCHAR Pi
ENCODING 928
SWIDTH 591 0
DWIDTH 7 0
BBX 6 9 0 0
BITMAP
FC
CC
CC
CC
CC
CC
CC
CC
CC
ENDCHAR
STARTCHAR Rho
ENCODING 929
SWIDTH 546 0
DWIDTH 7 0
BBX 6 9 0 0
BITMAP
F8
CC
CC
CC
CC
F8
C0
C0
C0
ENDCHAR
STARTCHAR Sigma
ENCODING 931
SWIDTH 492 0
DWIDTH 6 0
BBX 5 9 0 0
BITMAP
F8
C0
60
60
30
60
60
C0
F8
ENDCHAR
STARTCHAR Tau
ENCODING 932
SWIDTH 500 0
DWIDTH 7 0
BBX 6 9 0 0
BITMAP
FC
30
30
30
30
30
30
30
30
ENDCHAR
STARTCHAR Upsilon
ENCODING 933
SWIDTH 546 0
DWIDTH 7 0
BBX 6 9 0 0
BITMAP
CC
CC
78
78
30
30
30
30
30
ENDCHAR
STARTCHAR Phi
ENCODING 934
SWIDTH 670 0
DWIDTH 8 0
BBX 7 9 0 0
BITMAP
10
7C
D6
D6
D6
D6
D6
7C
10
ENDCHAR
STARTCHAR Chi
ENCODING 935
SWIDTH 546 0
DWIDTH 7 0
BBX 7 9 0 0
BITMAP
C6
6C
6C
38
38
38
6C
6C
C6
ENDCHAR
STARTCHAR Psi
ENCODING 936
SWIDTH 663 0
DWIDTH 8 0
BBX 7 9 0 0
BITMAP
D6
D6
D6
D6
D6
7C
10
10
10
ENDCHAR
STARTCHAR Ohm
ENCODING 937
SWIDTH 657 0
DWIDTH 8 0
BBX 7 9 0 0
BITMAP
38
44
C6
C6
C6
C6
C6
6C
EE
ENDCHAR
STARTCHAR Iotadieresis
ENCODING 938
SWIDTH 228 0
DWIDTH 3 0
BBX 3 11 -1 0
BITMAP
A0
00
60
60
60
60
60
60
60
60
60
ENDCHAR
STARTCHAR Upsilondieresis
ENCODING 939
SWIDTH 546 0
DWIDTH 7 0
BBX 6 11 0 0
BITMAP
50
00
CC
CC
78
78
30
30
30
30
30
ENDCHAR
STARTCHAR alphatonos
ENCODING 940
SWIDTH 503 0
DWIDTH 6 0
BBX 5 9 0 0
BITMAP
60
40
00
78
D8
D8
D8
D8
78
ENDCHAR
STARTCHAR epsilontonos
ENCODING 941
SWIDTH 389 0
DWIDTH 5 0
BBX 4 9 0 0
BITMAP
60
40
00
F0
C0
60
C0
C0
70
ENDCHAR
STARTCHAR etatonos
ENCODING 942
SWIDTH 500 0
DWIDTH 6 0
BBX 5 11 0 -2
BITMAP
60
40
00
F0
D8
D8
D8
D8
D8
18
18
ENDCHAR
STARTCHAR iotatonos
ENCODING 943
SWIDTH 228 0
DWIDTH 3 0
BBX 2 9 0 0
BITMAP
C0
80
00
C0
C0
C0
C0
C0
C0
ENDCHAR
STARTCHAR upsilondieresistonos
ENCODING 944
SWIDTH 477 0
DWIDTH 6 0
BBX 5 9 0 0
BITMAP
20
A8
00
D8
D8
D8
D8
D8
70
ENDCHAR
STARTCHAR alpha
ENCODING 945
SWIDTH 503 0
DWIDTH 6 0
BBX 5 6 0 0
BITMAP
78
D8
D8
D8
D8
78
ENDCHAR
STARTCHAR beta
ENCODING 946
SWIDTH 500 0
DWIDTH 6 0
BBX 5 11 0 -2
BITMAP
70
D8
D8
D8
F0
D8
D8
D8
F0
C0
C0
ENDCHAR
STARTCHAR gamma
ENCODING 947
SWIDTH 456 0
DWIDTH 5 0
BBX 5 8 0 -2
BITMAP
D8
D8
58
78
70
30
30
30
ENDCHAR
STARTCHAR delta
ENCODING 948
SWIDTH 497 0
DWIDTH 6 0
BBX 5 9 0 0
BITMAP
78
78
20
70
D8
D8
D8
D8
70
ENDCHAR
STARTCHAR epsilon
ENCODING 949
SWIDTH 389 0
DWIDTH 5 0
BBX 4 6 0 0
BITMAP
F0
C0
60
C0
C0
70
ENDCHAR
STARTCHAR zeta
ENCODING 950
SWIDTH 376 0
DWIDTH 5 0
BBX 4 11 0 -2
BITMAP
70
30
60
60
C0
C0
C0
F0
70
10
70
ENDCHAR
STARTCHAR eta
ENCODING 951
SWIDTH 500 0
DWIDTH 6 0
BBX 5 8 0 -2
BITMAP
F0
D8
D8
D8
D8
D8
18
18
ENDCHAR
STARTCHAR theta
ENCODING 952
SWIDTH 442 0
DWIDTH 5 0
BBX 4 9 0 0
BITMAP
60
D0
D0
D0
F0
D0
D0
D0
60
ENDCHAR
STARTCHAR iota
ENCODING 953
SWIDTH 228 0
DWIDTH 3 0
BBX 2 6 0 0
BITMAP
C0
C0
C0
C0
C0
C0
ENDCHAR
STARTCHAR kappa
ENCODING 954
SWIDTH 457 0
DWIDTH 5 0
BBX 5 6 0 0
BITMAP
D8
F0
F0
F0
D8
D8
ENDCHAR
STARTCHAR lambda
ENCODING 955
SWIDTH 456 0
DWIDTH 5 0
BBX 5 9 0 0
BITMAP
60
60
70
70
70
D0
D8
D8
D8
ENDCHAR
STARTCHAR mu
ENCODING 956
SWIDTH 500 0
DWIDTH 6 0
BBX 5 8 0 -2
BITMAP
D8
D8
D8
D8
D8
F8
C0
C0
ENDCHAR
STARTCHAR nu
ENCODING 957
SWIDTH 456 0
DWIDTH 6 0
BBX 5 6 0 0
BITMAP
D8
D8
50
50
70
70
ENDCHAR
STARTCHAR xi
ENCODING 958
SWIDTH 365 0
DWIDTH 4 0
BBX 4 11 0 -2
BITMAP
E0
C0
60
40
C0
C0
C0
E0
70
30
60
ENDCHAR
STARTCHAR omicron
ENCODING 959
SWIDTH 500 0
DWIDTH 6 0
BBX 5 6 0 0
BITMAP
70
D8
D8
D8
D8
70
ENDCHAR
STARTCHAR pi
ENCODING 960
SWIDTH 627 0
DWIDTH 8 0
BBX 7 6 0 0
BITMAP
FE
FE
6C
6C
6C
6C
ENDCHAR
STARTCHAR rho
ENCODING 961
SWIDTH 506 0
DWIDTH 6 0
BBX 5 8 0 -2
BITMAP
70
D8
D8
D8
D8
F0
C0
C0
ENDCHAR
STARTCHAR sigma1
ENCODING 962
SWIDTH 425 0
DWIDTH 5 0
BBX 4 8 0 -2
BITMAP
70
C0
C0
C0
E0
70
30
60
ENDCHAR
STARTCHAR sigma
ENCODING 963
SWIDTH 561 0
DWIDTH 7 0
BBX 6 6 0 0
BITMAP
7C
D8
D8
D8
D8
70
ENDCHAR
STARTCHAR tau
ENCODING 964
SWIDTH 366 0
DWIDTH 4 0
BBX 3 6 0 0
BITMAP
E0
E0
40
40
40
40
ENDCHAR
STARTCHAR upsilon
ENCODING 965
SWIDTH 477 0
DWIDTH 6 0
BBX 5 6 0 0
BITMAP
D8
D8
D8
D8
D8
70
ENDCHAR
STARTCHAR phi
ENCODING 966
SWIDTH 586 0
DWIDTH 7 0
BBX 6 8 0 -2
BITMAP
B8
B4
B4
B4
B4
78
30
30
ENDCHAR
STARTCHAR chi
ENCODING 967
SWIDTH 472 0
DWIDTH 6 0
BBX 5 8 0 -2
BITMAP
D8
D8
50
70
70
50
D8
D8
ENDCHAR
STARTCHAR psi
ENCODING 968
SWIDTH 618 0
DWIDTH 7 0
BBX 6 8 0 -2
BITMAP
B4
B4
B4
B4
B4
78
30
30
ENDCHAR
STARTCHAR omega
ENCODING 969
SWIDTH 692 0
DWIDTH 8 0
BBX 7 6 0 0
BITMAP
44
D6
D6
D6
D6
6C
ENDCHAR
STARTCHAR iotadieresis
ENCODING 970
SWIDTH 228 0
DWIDTH 3 0
BBX 3 8 -1 0
BITMAP
A0
00
60
60
60
60
60
60
ENDCHAR
STARTCHAR upsilondieresis
ENCODING 971
SWIDTH 477 0
DWIDTH 6 0
BBX 5 8 0 0
BITMAP
50
00
D8
D8
D8
D8
D8
70
ENDCHAR
STARTCHAR omicrontonos
ENCODING 972
SWIDTH 500 0
DWIDTH 6 0
BBX 5 9 0 0
BITMAP
60
40
00
70
D8
D8
D8
D8
70
ENDCHAR
STARTCHAR upsilontonos
ENCODING 973
SWIDTH 477 0
DWIDTH 6 0
BBX 5 9 0 0
BITMAP
60
40
00
D8
D8
D8
D8
D8
70
ENDCHAR
STARTCHAR omegatonos
ENCODING 974
SWIDTH 692 0
DWIDTH 8 0
BBX 7 9 0 0
BITMAP
30
20
00
44
D6
D6
D6
D6
6C
ENDCHAR
STARTCHAR afii10023
ENCODING 1025
SWIDTH 546 0
DWIDTH 6 0
BBX 5 11 0 0
BITMAP
50
00
F8
C0
C0
C0
F8
C0
C0
C0
F8
ENDCHAR
STARTCHAR afii10051
ENCODING 1026
SWIDTH 726 0
DWIDTH 9 0
BBX 8 9 0 0
BITMAP
FC
30
30
3E
33
33
33
33
36
ENDCHAR
STARTCHAR afii10052
ENCODING 1027
SWIDTH 493 0
DWIDTH 6 0
BBX 5 12 0 0
BITMAP
30
20
00
F8
C0
C0
C0
C0
C0
C0
C0
C0
ENDCHAR
STARTCHAR afii10053
ENCODING 1028
SWIDTH 583 0
DWIDTH 7 0
BBX 6 9 0 0
BITMAP
78
CC
C0
C0
F0
C0
CC
CC
78
ENDCHAR
STARTCHAR afii10054
ENCODING 1029
SWIDTH 546 0
DWIDTH 7 0
BBX 6 9 0 0
BITMAP
78
CC
CC
F0
78
1C
CC
CC
78
ENDCHAR
STARTCHAR afii10055
ENCODING 1030
SWIDTH 228 0
DWIDTH 3 0
BBX 2 9 0 0
BITMAP
C0
C0
C0
C0
C0
C0
C0
C0
C0
ENDCHAR
STARTCHAR afii10056
ENCODING 1031
SWIDTH 228 0
DWIDTH 3 0
BBX 3 11 -1 0
BITMAP
A0
00
60
60
60
60
60
60
60
60
60
ENDCHAR
STARTCHAR afii10057
ENCODING 1032
SWIDTH 456 0
DWIDTH 5 0
BBX 4 9 0 0
BITMAP
30
30
30
30
30
30
B0
B0
60
ENDCHAR
STARTCHAR afii10058
ENCODING 1033
SWIDTH 896 0
DWIDTH 11 0
BBX 10 9 0 0
BITMAP
7C00
6C00
6C00
6C00
6F80
6CC0
6CC0
6CC0
CF80
ENDCHAR
STARTCHAR afii10059
ENCODING 1034
SWIDTH 872 0
DWIDTH 10 0
BBX 8 9 1 0
BITMAP
D8
D8
D8
D8
FE
DB
DB
DB
DE
ENDCHAR
STARTCHAR afii10060
ENCODING 1035
SWIDTH 716 0
DWIDTH 9 0
BBX 8 9 0 0
BITMAP
FC
30
3E
33
33
33
33
33
33
ENDCHAR
STARTCHAR afii10061
ENCODING 1036
SWIDTH 500 0
DWIDTH 6 0
BBX 6 12 0 0
BITMAP
30
20
00
CC
CC
D8
D8
F0
D8
D8
CC
CC
ENDCHAR
STARTCHAR afii10062
ENCODING 1038
SWIDTH 509 0
DWIDTH 6 0
BBX 5 12 0 0
BITMAP
50
70
00
D8
D8
D8
D8
D8
70
70
70
E0
ENDCHAR
STARTCHAR afii10145
ENCODING 1039
SWIDTH 589 0
DWIDTH 7 0
BBX 6 11 0 -2
BITMAP
CC
CC
CC
CC
CC
CC
CC
CC
FC
30
30
ENDCHAR
STARTCHAR afii10017
ENCODING 1040
SWIDTH 591 0
DWIDTH 7 0
BBX 6 9 0 0
BITMAP
30
30
78
48
48
78
CC
CC
CC
ENDCHAR
STARTCHAR afii10018
ENCODING 1041
SWIDTH 589 0
DWIDTH 7 0
BBX 6 9 0 0
BITMAP
F8
C0
C0
C0
F8
CC
CC
CC
F8
ENDCHAR
STARTCHAR afii10019
ENCODING 1042
SWIDTH 591 0
DWIDTH 7 0
BBX 6 9 0 0
BITMAP
F8
CC
CC
CC
F8
CC
CC
CC
F8
ENDCHAR
STARTCHAR afii10020
ENCODING 1043
SWIDTH 493 0
DWIDTH 6 0
BBX 5 9 0 0
BITMAP
F8
C0
C0
C0
C0
C0
C0
C0
C0
ENDCHAR
STARTCHAR afii10021
ENCODING 1044
SWIDTH 583 0
DWIDTH 7 0
BBX 7 11 0 -2
BITMAP
7C
6C
6C
6C
6C
6C
4C
CC
FE
C6
C6
ENDCHAR
STARTCHAR afii10022
ENCODING 1045
SWIDTH 546 0
DWIDTH 6 0
BBX 5 9 0 0
BITMAP
F8
C0
C0
C0
F8
C0
C0
C0
F8
ENDCHAR
STARTCHAR afii10024
ENCODING 1046
SWIDTH 741 0
DWIDTH 9 0
BBX 9 9 0 0
BITMAP
C980
6B00
6B00
6B00
1E00
6A00
6B00
6B00
C980
ENDCHAR
STARTCHAR afii10025
ENCODING 1047
SWIDTH 513 0
DWIDTH 6 0
BBX 5 9 0 0
BITMAP
70
D8
18
18
30
18
D8
D8
70
ENDCHAR
STARTCHAR afii10026
ENCODING 1048
SWIDTH 589 0
DWIDTH 7 0
BBX 6 9 0 0
BITMAP
CC
DC
DC
DC
FC
EC
EC
EC
CC
ENDCHAR
STARTCHAR afii10027
ENCODING 1049
SWIDTH 589 0
DWIDTH 7 0
BBX 6 12 0 0
BITMAP
50
70
00
CC
DC
DC
DC
FC
EC
EC
EC
CC
ENDCHAR
STARTCHAR afii10028
ENCODING 1050
SWIDTH 500 0
DWIDTH 6 0
BBX 6 9 0 0
BITMAP
CC
CC
D8
D8
F0
D8
D8
CC
CC
ENDCHAR
STARTCHAR afii10029
ENCODING 1051
SWIDTH 576 0
DWIDTH 7 0
BBX 6 9 0 0
BITMAP
7C
6C
6C
6C
6C
6C
6C
6C
CC
ENDCHAR
STARTCHAR afii10030
ENCODING 1052
SWIDTH 683 0
DWIDTH 8 0
BBX 7 9 0 0
BITMAP
C6
C6
C6
EE
EE
F6
D6
D6
D6
ENDCHAR
STARTCHAR afii10031
ENCODING 1053
SWIDTH 591 0
DWIDTH 7 0
BBX 6 9 0 0
BITMAP
CC
CC
CC
CC
FC
CC
CC
CC
CC
ENDCHAR
STARTCHAR afii10032
ENCODING 1054
SWIDTH 638 0
DWIDTH 8 0
BBX 7 9 0 0
BITMAP
3C
6C
C6
C6
C6
C6
C6
6C
38
ENDCHAR
STARTCHAR afii10033
ENCODING 1055
SWIDTH 591 0
DWIDTH 7 0
BBX 6 9 0 0
BITMAP
FC
CC
CC
CC
CC
CC
CC
CC
CC
ENDCHAR
STARTCHAR afii10034
ENCODING 1056
SWIDTH 546 0
DWIDTH 7 0
BBX 6 9 0 0
BITMAP
F8
CC
CC
CC
CC
F8
C0
C0
C0
ENDCHAR
STARTCHAR afii10035
ENCODING 1057
SWIDTH 591 0
DWIDTH 7 0
BBX 6 9 0 0
BITMAP
78
CC
C0
C0
C0
C0
CC
CC
78
ENDCHAR
STARTCHAR afii10036
ENCODING 1058
SWIDTH 500 0
DWIDTH 7 0
BBX 6 9 0 0
BITMAP
FC
30
30
30
30
30
30
30
30
ENDCHAR
STARTCHAR afii10037
ENCODING 1059
SWIDTH 509 0
DWIDTH 6 0
BBX 5 9 0 0
BITMAP
D8
D8
D8
D8
D8
70
70
70
E0
ENDCHAR
STARTCHAR afii10038
ENCODING 1060
SWIDTH 699 0
DWIDTH 8 0
BBX 8 9 0 0
BITMAP
18
7E
DB
DB
DB
DB
DB
7E
18
ENDCHAR
STARTCHAR afii10039
ENCODING 1061
SWIDTH 546 0
DWIDTH 7 0
BBX 7 9 0 0
BITMAP
C6
6C
6C
38
38
38
6C
6C
C6
ENDCHAR
STARTCHAR afii10040
ENCODING 1062
SWIDTH 599 0
DWIDTH 7 0
BBX 7 11 0 -2
BITMAP
CC
CC
CC
CC
CC
CC
CC
CC
FE
06
06
ENDCHAR
STARTCHAR afii10041
ENCODING 1063
SWIDTH 576 0
DWIDTH 7 0
BBX 6 9 0 0
BITMAP
CC
CC
CC
CC
CC
7C
0C
0C
0C
ENDCHAR
STARTCHAR afii10042
ENCODING 1064
SWIDTH 824 0
DWIDTH 10 0
BBX 9 9 0 0
BITMAP
D980
D980
D980
D980
D980
D980
D980
D980
FF80
ENDCHAR
STARTCHAR afii10043
ENCODING 1065
SWIDTH 835 0
DWIDTH 10 0
BBX 10 11 0 -2
BITMAP
D980
D980
D980
D980
D980
D980
D980
D9C0
FFC0
00C0
00C0
ENDCHAR
STARTCHAR afii10044
ENCODING 1066
SWIDTH 712 0
DWIDTH 9 0
BBX 8 9 0 0
BITMAP
F0
30
30
3E
33
33
33
33
3E
ENDCHAR
STARTCHAR afii10045
ENCODING 1067
SWIDTH 817 0
DWIDTH 10 0
BBX 9 9 0 0
BITMAP
C180
C180
C180
C180
F980
CD80
CD80
CD80
F980
ENDCHAR
STARTCHAR afii10046
ENCODING 1068
SWIDTH 589 0
DWIDTH 7 0
BBX 6 9 0 0
BITMAP
C0
C0
C0
C0
F8
CC
CC
CC
F8
ENDCHAR
STARTCHAR afii10047
ENCODING 1069
SWIDTH 583 0
DWIDTH 7 0
BBX 6 9 0 0
BITMAP
78
CC
0C
0C
3C
0C
CC
CC
78
ENDCHAR
STARTCHAR afii10048
ENCODING 1070
SWIDTH 845 0
DWIDTH 10 0
BBX 9 9 0 0
BITMAP
C600
C900
D980
D980
F980
D980
D980
C900
C600
ENDCHAR
STARTCHAR afii10049
ENCODING 1071
SWIDTH 591 0
DWIDTH 7 0
BBX 7 9 0 0
BITMAP
3E
66
66
66
3E
36
66
66
C6
ENDCHAR
STARTCHAR afii10065
ENCODING 1072
SWIDTH 456 0
DWIDTH 5 0
BBX 4 6 0 0
BITMAP
E0
30
70
B0
B0
F0
ENDCHAR
STARTCHAR afii10066
ENCODING 1073
SWIDTH 506 0
DWIDTH 6 0
BBX 5 9 0 0
BITMAP
78
C0
80
F0
D8
D8
D8
D8
70
ENDCHAR
STARTCHAR afii10067
ENCODING 1074
SWIDTH 503 0
DWIDTH 6 0
BBX 5 6 0 0
BITMAP
F8
D8
E0
D8
D8
F0
ENDCHAR
STARTCHAR afii10068
ENCODING 1075
SWIDTH 341 0
DWIDTH 4 0
BBX 4 6 0 0
BITMAP
F0
C0
C0
C0
C0
C0
ENDCHAR
STARTCHAR afii10069
ENCODING 1076
SWIDTH 520 0
DWIDTH 6 0
BBX 5 8 0 -2
BITMAP
F8
D8
D8
D8
D8
F8
D8
D8
ENDCHAR
STARTCHAR afii10070
ENCODING 1077
SWIDTH 456 0
DWIDTH 5 0
BBX 4 6 0 0
BITMAP
60
D0
F0
C0
D0
60
ENDCHAR
STARTCHAR afii10072
ENCODING 1078
SWIDTH 581 0
DWIDTH 7 0
BBX 7 6 0 0
BITMAP
D6
54
7C
7C
54
92
ENDCHAR
STARTCHAR afii10073
ENCODING 1079
SWIDTH 408 0
DWIDTH 5 0
BBX 4 6 0 0
BITMAP
F0
30
40
30
B0
60
ENDCHAR
STARTCHAR afii10074
ENCODING 1080
SWIDTH 503 0
DWIDTH 6 0
BBX 5 6 0 0
BITMAP
98
98
B8
E8
C8
C8
ENDCHAR
STARTCHAR afii10075
ENCODING 1081
SWIDTH 500 0
DWIDTH 6 0
BBX 5 9 0 0
BITMAP
50
70
00
98
98
B8
E8
C8
C8
ENDCHAR
STARTCHAR afii10076
ENCODING 1082
SWIDTH 410 0
DWIDTH 5 0
BBX 5 6 0 0
BITMAP
D8
D8
E0
D8
D8
D8
ENDCHAR
STARTCHAR afii10077
ENCODING 1083
SWIDTH 520 0
DWIDTH 7 0
BBX 6 6 0 0
BITMAP
7C
6C
6C
6C
6C
EC
ENDCHAR
STARTCHAR afii10078
ENCODING 1084
SWIDTH 606 0
DWIDTH 7 0
BBX 5 6 1 0
BITMAP
D8
D8
D8
D8
A8
A8
ENDCHAR
STARTCHAR afii10079
ENCODING 1085
SWIDTH 495 0
DWIDTH 6 0
BBX 5 6 1 0
BITMAP
D8
D8
F8
D8
D8
D8
ENDCHAR
STARTCHAR afii10080
ENCODING 1086
SWIDTH 500 0
DWIDTH 6 0
BBX 5 6 0 0
BITMAP
70
D8
D8
D8
D8
70
ENDCHAR
STARTCHAR afii10081
ENCODING 1087
SWIDTH 495 0
DWIDTH 6 0
BBX 5 6 1 0
BITMAP
F8
D8
D8
D8
D8
D8
ENDCHAR
STARTCHAR afii10082
ENCODING 1088
SWIDTH 500 0
DWIDTH 6 0
BBX 5 8 0 -2
BITMAP
F0
D8
D8
D8
D8
F0
C0
C0
ENDCHAR
STARTCHAR afii10083
ENCODING 1089
SWIDTH 456 0
DWIDTH 5 0
BBX 4 6 0 0
BITMAP
60
D0
C0
C0
D0
60
ENDCHAR
STARTCHAR afii10084
ENCODING 1090
SWIDTH 401 0
DWIDTH 5 0
BBX 6 6 0 0
BITMAP
FC
30
30
30
30
30
ENDCHAR
STARTCHAR afii10085
ENCODING 1091
SWIDTH 456 0
DWIDTH 5 0
BBX 5 8 0 -2
BITMAP
D8
D8
50
70
70
20
20
C0
ENDCHAR
STARTCHAR afii10086
ENCODING 1092
SWIDTH 716 0
DWIDTH 9 0
BBX 8 11 0 -2
BITMAP
18
18
18
7E
DB
DB
DB
DB
7E
18
18
ENDCHAR
STARTCHAR afii10087
ENCODING 1093
SWIDTH 456 0
DWIDTH 5 0
BBX 5 6 0 0
BITMAP
D8
50
60
30
50
D8
ENDCHAR
STARTCHAR afii10088
ENCODING 1094
SWIDTH 503 0
DWIDTH 6 0
BBX 6 8 0 -2
BITMAP
D8
D8
D8
D8
D8
FC
0C
0C
ENDCHAR
STARTCHAR afii10089
ENCODING 1095
SWIDTH 476 0
DWIDTH 6 0
BBX 5 6 0 0
BITMAP
D8
D8
D8
78
18
18
ENDCHAR
STARTCHAR afii10090
ENCODING 1096
SWIDTH 683 0
DWIDTH 8 0
BBX 8 6 0 0
BITMAP
DB
DB
DB
DB
DB
FF
ENDCHAR
STARTCHAR afii10091
ENCODING 1097
SWIDTH 691 0
DWIDTH 8 0
BBX 9 8 0 -2
BITMAP
DB00
DB00
DB00
DB00
DB00
FF80
0180
0180
ENDCHAR
STARTCHAR afii10092
ENCODING 1098
SWIDTH 598 0
DWIDTH 7 0
BBX 7 6 0 0
BITMAP
F0
30
3C
36
36
3C
ENDCHAR
STARTCHAR afii10093
ENCODING 1099
SWIDTH 731 0
DWIDTH 9 0
BBX 8 6 0 0
BITMAP
C3
C3
FB
CF
CF
FB
ENDCHAR
STARTCHAR afii10094
ENCODING 1100
SWIDTH 503 0
DWIDTH 6 0
BBX 6 6 0 0
BITMAP
C0
C0
F8
CC
CC
F8
ENDCHAR
STARTCHAR afii10095
ENCODING 1101
SWIDTH 453 0
DWIDTH 5 0
BBX 5 6 0 0
BITMAP
70
D8
38
18
D8
70
ENDCHAR
STARTCHAR afii10096
ENCODING 1102
SWIDTH 700 0
DWIDTH 8 0
BBX 7 6 0 0
BITMAP
DC
F6
F6
F6
F6
DC
ENDCHAR
STARTCHAR afii10097
ENCODING 1103
SWIDTH 478 0
DWIDTH 6 0
BBX 5 6 0 0
BITMAP
78
D8
D8
78
78
D8
ENDCHAR
STARTCHAR afii10071
ENCODING 1105
SWIDTH 456 0
DWIDTH 5 0
BBX 4 8 0 0
BITMAP
A0
00
60
D0
F0
C0
D0
60
ENDCHAR
STARTCHAR afii10099
ENCODING 1106
SWIDTH 500 0
DWIDTH 6 0
BBX 5 11 0 -2
BITMAP
C0
F0
C0
F8
D8
D8
D8
D8
D8
18
38
ENDCHAR
STARTCHAR afii10100
ENCODING 1107
SWIDTH 341 0
DWIDTH 4 0
BBX 4 9 0 0
BITMAP
60
40
00
F0
C0
C0
C0
C0
C0
ENDCHAR
STARTCHAR afii10101
ENCODING 1108
SWIDTH 453 0
DWIDTH 5 0
BBX 5 6 0 0
BITMAP
78
C0
E0
C0
D8
70
ENDCHAR
STARTCHAR afii10102
ENCODING 1109
SWIDTH 456 0
DWIDTH 5 0
BBX 4 6 0 0
BITMAP
60
D0
F0
30
B0
60
ENDCHAR
STARTCHAR afii10103
ENCODING 1110
SWIDTH 228 0
DWIDTH 3 0
BBX 2 9 0 0
BITMAP
C0
C0
00
C0
C0
C0
C0
C0
C0
ENDCHAR
STARTCHAR afii10104
ENCODING 1111
SWIDTH 228 0
DWIDTH 3 0
BBX 3 8 -1 0
BITMAP
A0
00
60
60
60
60
60
60
ENDCHAR
STARTCHAR afii10105
ENCODING 1112
SWIDTH 228 0
DWIDTH 3 0
BBX 3 11 -1 -2
BITMAP
60
60
00
60
60
60
60
60
60
60
C0
ENDCHAR
STARTCHAR afii10106
ENCODING 1113
SWIDTH 794 0
DWIDTH 10 0
BBX 10 6 0 0
BITMAP
7E00
6600
6780
66C0
66C0
E780
ENDCHAR
STARTCHAR afii10107
ENCODING 1114
SWIDTH 743 0
DWIDTH 9 0
BBX 9 6 0 0
BITMAP
D800
D800
FF00
D980
D980
DF00
ENDCHAR
STARTCHAR afii10108
ENCODING 1115
SWIDTH 500 0
DWIDTH 6 0
BBX 5 9 0 0
BITMAP
C0
E0
C0
F8
D8
D8
D8
D8
D8
ENDCHAR
STARTCHAR afii10109
ENCODING 1116
SWIDTH 410 0
DWIDTH 5 0
BBX 5 9 0 0
BITMAP
30
20
00
D8
D8
E0
D8
D8
D8
ENDCHAR
STARTCHAR afii10110
ENCODING 1118
SWIDTH 456 0
DWIDTH 5 0
BBX 5 11 0 -2
BITMAP
50
70
00
D8
D8
50
70
70
20
20
C0
ENDCHAR
STARTCHAR afii10193
ENCODING 1119
SWIDTH 495 0
DWIDTH 6 0
BBX 5 8 0 -2
BITMAP
D8
D8
D8
D8
D8
F8
30
30
ENDCHAR
STARTCHAR afii10050
ENCODING 1168
SWIDTH 453 0
DWIDTH 5 0
BBX 5 11 0 0
BITMAP
18
18
F8
C0
C0
C0
C0
C0
C0
C0
C0
ENDCHAR
STARTCHAR afii10098
ENCODING 1169
SWIDTH 341 0
DWIDTH 4 0
BBX 4 8 0 0
BITMAP
30
30
F0
C0
C0
C0
C0
C0
ENDCHAR
STARTCHAR Wgrave
ENCODING 7808
SWIDTH 773 0
DWIDTH 9 0
BBX 8 12 0 0
BITMAP
18
08
00
DB
DB
DB
DB
DB
DB
EB
66
66
ENDCHAR
STARTCHAR wgrave
ENCODING 7809
SWIDTH 638 0
DWIDTH 8 0
BBX 7 9 0 0
BITMAP
30
10
00
D6
D6
D6
6C
6C
6C
ENDCHAR
STARTCHAR Wacute
ENCODING 7810
SWIDTH 773 0
DWIDTH 9 0
BBX 8 12 0 0
BITMAP
18
10
00
DB
DB
DB
DB
DB
DB
EB
66
66
ENDCHAR
STARTCHAR wacute
ENCODING 7811
SWIDTH 638 0
DWIDTH 8 0
BBX 7 9 0 0
BITMAP
30
20
00
D6
D6
D6
6C
6C
6C
ENDCHAR
STARTCHAR Wdieresis
ENCODING 7812
SWIDTH 773 0
DWIDTH 9 0
BBX 8 11 0 0
BITMAP
28
00
DB
DB
DB
DB
DB
DB
EB
66
66
ENDCHAR
STARTCHAR wdieresis
ENCODING 7813
SWIDTH 638 0
DWIDTH 8 0
BBX 7 8 0 0
BITMAP
28
00
D6
D6
D6
6C
6C
6C
ENDCHAR
STARTCHAR Ygrave
ENCODING 7922
SWIDTH 546 0
DWIDTH 7 0
BBX 6 12 0 0
BITMAP
30
10
00
CC
CC
78
78
30
30
30
30
30
ENDCHAR
STARTCHAR ygrave
ENCODING 7923
SWIDTH 456 0
DWIDTH 5 0
BBX 5 11 0 -2
BITMAP
30
10
00
D8
D8
50
70
70
20
20
C0
ENDCHAR
STARTCHAR endash
ENCODING 8211
SWIDTH 456 0
DWIDTH 5 0
BBX 5 1 0 3
BITMAP
F8
ENDCHAR
STARTCHAR emdash
ENCODING 8212
SWIDTH 819 0
DWIDTH 10 0
BBX 10 1 0 3
BITMAP
FFC0
ENDCHAR
STARTCHAR afii00208
ENCODING 8213
SWIDTH 819 0
DWIDTH 10 0
BBX 8 1 1 3
BITMAP
FF
ENDCHAR
STARTCHAR underscoredbl
ENCODING 8215
SWIDTH 500 0
DWIDTH 6 0
BBX 6 2 0 -3
BITMAP
FC
FC
ENDCHAR
STARTCHAR quoteleft
ENCODING 8216
SWIDTH 228 0
DWIDTH 3 0
BBX 2 3 0 6
BITMAP
40
80
C0
ENDCHAR
STARTCHAR quoteright
ENCODING 8217
SWIDTH 228 0
DWIDTH 3 0
BBX 2 3 0 6
BITMAP
C0
40
80
ENDCHAR
STARTCHAR quotesinglbase
ENCODING 8218
SWIDTH 228 0
DWIDTH 3 0
BBX 2 3 0 -2
BITMAP
C0
40
80
ENDCHAR
STARTCHAR quotereversed
ENCODING 8219
SWIDTH 228 0
DWIDTH 3 0
BBX 2 3 1 6
BITMAP
C0
80
40
ENDCHAR
STARTCHAR quotedblleft
ENCODING 8220
SWIDTH 410 0
DWIDTH 5 0
BBX 4 3 0 6
BITMAP
50
A0
F0
ENDCHAR
STARTCHAR quotedblright
ENCODING 8221
SWIDTH 410 0
DWIDTH 5 0
BBX 4 3 0 6
BITMAP
F0
50
A0
ENDCHAR
STARTCHAR quotedblbase
ENCODING 8222
SWIDTH 410 0
DWIDTH 5 0
BBX 4 3 0 -2
BITMAP
F0
50
A0
ENDCHAR
STARTCHAR dagger
ENCODING 8224
SWIDTH 456 0
DWIDTH 5 0
BBX 6 11 -1 -2
BITMAP
30
30
30
FC
30
30
30
30
30
30
30
ENDCHAR
STARTCHAR daggerdbl
ENCODING 8225
SWIDTH 456 0
DWIDTH 5 0
BBX 6 11 -1 -2
BITMAP
30
30
FC
30
30
30
30
30
FC
30
30
ENDCHAR
STARTCHAR bullet
ENCODING 8226
SWIDTH 287 0
DWIDTH 3 0
BBX 3 3 0 3
BITMAP
E0
E0
E0
ENDCHAR
STARTCHAR ellipsis
ENCODING 8230
SWIDTH 819 0
DWIDTH 10 0
BBX 8 2 1 0
BITMAP
DB
DB
ENDCHAR
STARTCHAR perthousand
ENCODING 8240
SWIDTH 819 0
DWIDTH 10 0
BBX 10 9 0 0
BITMAP
E400
A800
A800
F000
1000
1FC0
2B40
2B40
4FC0
ENDCHAR
STARTCHAR minute
ENCODING 8242
SWIDTH 194 0
DWIDTH 2 0
BBX 2 3 0 6
BITMAP
C0
C0
C0
ENDCHAR
STARTCHAR second
ENCODING 8243
SWIDTH 389 0
DWIDTH 5 0
BBX 5 3 0 6
BITMAP
D8
D8
D8
ENDCHAR
STARTCHAR guilsinglleft
ENCODING 8249
SWIDTH 272 0
DWIDTH 3 0
BBX 3 6 0 0
BITMAP
60
40
C0
40
60
20
ENDCHAR
STARTCHAR guilsinglright
ENCODING 8250
SWIDTH 272 0
DWIDTH 3 0
BBX 3 6 0 0
BITMAP
80
C0
40
60
40
C0
ENDCHAR
STARTCHAR exclamdbl
ENCODING 8252
SWIDTH 545 0
DWIDTH 7 0
BBX 5 9 0 0
BITMAP
D8
D8
D8
D8
D8
D8
D8
00
D8
ENDCHAR
STARTCHAR radicalex
ENCODING 8254
SWIDTH 272 0
DWIDTH 3 0
BBX 3 1 0 7
BITMAP
E0
ENDCHAR
STARTCHAR fraction
ENCODING 8260
SWIDTH 137 0
DWIDTH 2 0
BBX 6 9 -2 0
BITMAP
04
08
08
10
20
20
40
40
80
ENDCHAR
STARTCHAR nsuperior
ENCODING 8319
SWIDTH 325 0
DWIDTH 4 0
BBX 3 4 0 5
BITMAP
E0
A0
A0
A0
ENDCHAR
STARTCHAR franc
ENCODING 8355
SWIDTH 503 0
DWIDTH 6 0
BBX 5 9 0 0
BITMAP
78
60
60
60
78
60
60
F0
60
ENDCHAR
STARTCHAR afii08941
ENCODING 8356
SWIDTH 456 0
DWIDTH 6 0
BBX 6 9 0 0
BITMAP
38
6C
60
F0
60
F0
60
E0
FC
ENDCHAR
STARTCHAR peseta
ENCODING 8359
SWIDTH 960 0
DWIDTH 12 0
BBX 12 9 0 0
BITMAP
F000
DE00
DE00
DFF0
DEC0
F6C0
C670
C630
C7E0
ENDCHAR
STARTCHAR Euro
ENCODING 8364
SWIDTH 456 0
DWIDTH 5 0
BBX 5 9 -1 0
BITMAP
30
68
60
F8
60
F8
60
68
30
ENDCHAR
STARTCHAR afii61248
ENCODING 8453
SWIDTH 789 0
DWIDTH 9 0
BBX 9 9 0 0
BITMAP
6200
A400
8400
A400
6B00
0C80
1480
1480
2300
ENDCHAR
STARTCHAR afii61289
ENCODING 8467
SWIDTH 490 0
DWIDTH 6 0
BBX 5 9 0 0
BITMAP
30
68
68
70
70
60
E0
60
38
ENDCHAR
STARTCHAR afii61352
ENCODING 8470
SWIDTH 914 0
DWIDTH 11 0
BBX 11 9 0 0
BITMAP
CC00
CC00
ECC0
EDA0
FDA0
DDA0
DCC0
DC00
CDE0
ENDCHAR
STARTCHAR trademark
ENCODING 8482
SWIDTH 819 0
DWIDTH 10 0
BBX 9 5 0 4
BITMAP
ED80
4D80
4D80
4A80
4A80
ENDCHAR
STARTCHAR glyph526
ENCODING 8486
SWIDTH 768 0
DWIDTH 9 0
BBX 9 9 0 0
BITMAP
3E00
6300
C180
C180
C180
C180
6100
6300
F780
ENDCHAR
STARTCHAR estimated
ENCODING 8494
SWIDTH 600 0
DWIDTH 7 0
BBX 5 6 1 0
BITMAP
70
D8
F8
C0
C8
70
ENDCHAR
STARTCHAR oneeighth
ENCODING 8539
SWIDTH 684 0
DWIDTH 8 0
BBX 7 9 0 0
BITMAP
42
C4
44
48
10
16
22
26
46
ENDCHAR
STARTCHAR threeeighths
ENCODING 8540
SWIDTH 684 0
DWIDTH 8 0
BBX 7 9 0 0
BITMAP
E2
64
24
E8
10
16
22
26
46
ENDCHAR
STARTCHAR fiveeighths
ENCODING 8541
SWIDTH 684 0
DWIDTH 8 0
BBX 7 9 0 0
BITMAP
C2
C4
44
C8
10
16
22
26
46
ENDCHAR
STARTCHAR seveneighths
ENCODING 8542
SWIDTH 684 0
DWIDTH 8 0
BBX 7 9 0 0
BITMAP
E2
24
44
48
10
16
22
26
46
ENDCHAR
STARTCHAR arrowleft
ENCODING 8592
SWIDTH 1000 0
DWIDTH 12 0
BBX 10 4 1 1
BITMAP
4000
8000
FFC0
4000
ENDCHAR
STARTCHAR arrowup
ENCODING 8593
SWIDTH 500 0
DWIDTH 6 0
BBX 4 9 1 -2
BITMAP
60
D0
40
40
40
40
40
40
40
ENDCHAR
STARTCHAR arrowright
ENCODING 8594
SWIDTH 1000 0
DWIDTH 12 0
BBX 10 4 1 1
BITMAP
0080
0040
FFC0
0080
ENDCHAR
STARTCHAR arrowdown
ENCODING 8595
SWIDTH 500 0
DWIDTH 6 0
BBX 4 9 1 -2
BITMAP
40
40
40
40
40
40
40
D0
60
ENDCHAR
STARTCHAR arrowboth
ENCODING 8596
SWIDTH 1000 0
DWIDTH 12 0
BBX 10 4 1 1
BITMAP
4080
8040
FFC0
4080
ENDCHAR
STARTCHAR arrowupdn
ENCODING 8597
SWIDTH 500 0
DWIDTH 6 0
BBX 4 10 1 -2
BITMAP
60
D0
40
40
40
40
40
40
D0
60
ENDCHAR
STARTCHAR arrowupdnbse
ENCODING 8616
SWIDTH 500 0
DWIDTH 6 0
BBX 4 12 1 -4
BITMAP
60
D0
40
40
40
40
40
40
D0
60
00
F0
ENDCHAR
STARTCHAR partialdiff
ENCODING 8706
SWIDTH 494 0
DWIDTH 6 0
BBX 5 9 0 0
BITMAP
30
48
08
38
68
C8
D0
D0
60
ENDCHAR
STARTCHAR increment
ENCODING 8710
SWIDTH 611 0
DWIDTH 7 0
BBX 7 9 0 0
BITMAP
10
10
10
38
48
4C
4C
84
FE
ENDCHAR
STARTCHAR product
ENCODING 8719
SWIDTH 823 0
DWIDTH 10 0
BBX 8 11 1 -2
BITMAP
FF
C3
C3
C3
C3
C3
C3
C3
C3
C3
C3
ENDCHAR
STARTCHAR summation
ENCODING 8721
SWIDTH 712 0
DWIDTH 9 0
BBX 8 11 1 -2
BITMAP
FF
80
40
20
10
08
10
20
40
80
FF
ENDCHAR
STARTCHAR minus
ENCODING 8722
SWIDTH 479 0
DWIDTH 6 0
BBX 6 2 0 3
BITMAP
FC
FC
ENDCHAR
STARTCHAR fraction.dup3
ENCODING 8725
SWIDTH 137 0
DWIDTH 2 0
BBX 6 9 -2 0
BITMAP
04
08
08
10
20
20
40
40
80
ENDCHAR
STARTCHAR periodcentered
ENCODING 8729
SWIDTH 228 0
DWIDTH 3 0
BBX 2 1 1 3
BITMAP
C0
ENDCHAR
STARTCHAR radical
ENCODING 8730
SWIDTH 548 0
DWIDTH 7 0
BBX 6 12 1 -1
BITMAP
04
04
04
04
04
88
48
28
28
18
18
08
ENDCHAR
STARTCHAR infinity
ENCODING 8734
SWIDTH 712 0
DWIDTH 9 0
BBX 7 4 1 2
BITMAP
EC
92
B2
6C
ENDCHAR
STARTCHAR orthogonal
ENCODING 8735
SWIDTH 979 0
DWIDTH 12 0
BBX 8 8 2 0
BITMAP
80
80
80
80
80
80
80
FF
ENDCHAR
STARTCHAR intersection
ENCODING 8745
SWIDTH 722 0
DWIDTH 9 0
BBX 7 8 1 0
BITMAP
78
84
84
84
84
82
82
82
ENDCHAR
STARTCHAR integral
ENCODING 8747
SWIDTH 273 0
DWIDTH 3 0
BBX 3 12 0 -1
BITMAP
60
40
40
40
40
40
40
40
40
40
40
80
ENDCHAR
STARTCHAR approxequal
ENCODING 8776
SWIDTH 548 0
DWIDTH 7 0
BBX 6 5 0 2
BITMAP
E0
1C
00
E0
1C
ENDCHAR
STARTCHAR notequal
ENCODING 8800
SWIDTH 548 0
DWIDTH 7 0
BBX 7 7 0 1
BITMAP
0C
18
FE
38
FE
30
60
ENDCHAR
STARTCHAR equivalence
ENCODING 8801
SWIDTH 478 0
DWIDTH 6 0
BBX 5 5 0 1
BITMAP
F8
00
F8
00
F8
ENDCHAR
STARTCHAR lessequal
ENCODING 8804
SWIDTH 548 0
DWIDTH 7 0
BBX 7 9 0 0
BITMAP
06
3E
F8
C0
F8
3E
06
FE
FE
ENDCHAR
STARTCHAR greaterequal
ENCODING 8805
SWIDTH 548 0
DWIDTH 7 0
BBX 7 9 0 0
BITMAP
C0
F8
3E
06
3E
F8
C0
FE
FE
ENDCHAR
STARTCHAR house
ENCODING 8962
SWIDTH 600 0
DWIDTH 7 0
BBX 5 7 1 0
BITMAP
20
50
88
88
88
88
F8
ENDCHAR
STARTCHAR revlogicalnot
ENCODING 8976
SWIDTH 479 0
DWIDTH 6 0
BBX 5 5 1 1
BITMAP
F8
F8
C0
C0
C0
ENDCHAR
STARTCHAR integraltp
ENCODING 8992
SWIDTH 604 0
DWIDTH 7 0
BBX 3 13 3 -3
BITMAP
E0
80
80
80
80
80
80
80
80
80
80
80
80
ENDCHAR
STARTCHAR integralbt
ENCODING 8993
SWIDTH 604 0
DWIDTH 7 0
BBX 2 13 2 -3
BITMAP
40
40
40
40
40
40
40
40
40
40
40
40
80
ENDCHAR
STARTCHAR SF100000
ENCODING 9472
SWIDTH 708 0
DWIDTH 9 0
BBX 9 1 0 3
BITMAP
FF80
ENDCHAR
STARTCHAR SF110000
ENCODING 9474
SWIDTH 615 0
DWIDTH 7 0
BBX 1 15 3 -4
BITMAP
80
80
80
80
80
80
80
80
80
80
80
80
80
80
80
ENDCHAR
STARTCHAR SF010000
ENCODING 9484
SWIDTH 708 0
DWIDTH 9 0
BBX 5 8 4 -4
BITMAP
F8
80
80
80
80
80
80
80
ENDCHAR
STARTCHAR SF030000
ENCODING 9488
SWIDTH 708 0
DWIDTH 9 0
BBX 5 8 0 -4
BITMAP
F8
08
08
08
08
08
08
08
ENDCHAR
STARTCHAR SF020000
ENCODING 9492
SWIDTH 708 0
DWIDTH 9 0
BBX 5 8 4 3
BITMAP
80
80
80
80
80
80
80
F8
ENDCHAR
STARTCHAR SF040000
ENCODING 9496
SWIDTH 708 0
DWIDTH 9 0
BBX 5 8 0 3
BITMAP
08
08
08
08
08
08
08
F8
ENDCHAR
STARTCHAR SF080000
ENCODING 9500
SWIDTH 708 0
DWIDTH 9 0
BBX 5 15 4 -4
BITMAP
80
80
80
80
80
80
80
F8
80
80
80
80
80
80
80
ENDCHAR
STARTCHAR SF090000
ENCODING 9508
SWIDTH 708 0
DWIDTH 9 0
BBX 5 15 0 -4
BITMAP
08
08
08
08
08
08
08
F8
08
08
08
08
08
08
08
ENDCHAR
STARTCHAR SF060000
ENCODING 9516
SWIDTH 708 0
DWIDTH 9 0
BBX 9 8 0 -4
BITMAP
FF80
0800
0800
0800
0800
0800
0800
0800
ENDCHAR
STARTCHAR SF070000
ENCODING 9524
SWIDTH 708 0
DWIDTH 9 0
BBX 9 8 0 3
BITMAP
0800
0800
0800
0800
0800
0800
0800
FF80
ENDCHAR
STARTCHAR SF050000
ENCODING 9532
SWIDTH 708 0
DWIDTH 9 0
BBX 9 15 0 -4
BITMAP
0800
0800
0800
0800
0800
0800
0800
FF80
0800
0800
0800
0800
0800
0800
0800
ENDCHAR
STARTCHAR SF430000
ENCODING 9552
SWIDTH 708 0
DWIDTH 9 0
BBX 9 3 0 2
BITMAP
FF80
0000
FF80
ENDCHAR
STARTCHAR SF240000
ENCODING 9553
SWIDTH 708 0
DWIDTH 9 0
BBX 3 15 0 -4
BITMAP
A0
A0
A0
A0
A0
A0
A0
A0
A0
A0
A0
A0
A0
A0
A0
ENDCHAR
STARTCHAR SF510000
ENCODING 9554
SWIDTH 708 0
DWIDTH 9 0
BBX 5 9 0 -4
BITMAP
F8
80
F8
80
80
80
80
80
80
ENDCHAR
STARTCHAR SF520000
ENCODING 9555
SWIDTH 708 0
DWIDTH 9 0
BBX 6 8 0 -4
BITMAP
FC
A0
A0
A0
A0
A0
A0
A0
ENDCHAR
STARTCHAR SF390000
ENCODING 9556
SWIDTH 708 0
DWIDTH 9 0
BBX 6 9 0 -4
BITMAP
FC
80
BC
A0
A0
A0
A0
A0
A0
ENDCHAR
STARTCHAR SF220000
ENCODING 9557
SWIDTH 708 0
DWIDTH 9 0
BBX 5 9 0 -4
BITMAP
F8
08
F8
08
08
08
08
08
08
ENDCHAR
STARTCHAR SF210000
ENCODING 9558
SWIDTH 708 0
DWIDTH 9 0
BBX 6 8 0 -4
BITMAP
FC
14
14
14
14
14
14
14
ENDCHAR
STARTCHAR SF250000
ENCODING 9559
SWIDTH 708 0
DWIDTH 9 0
BBX 6 9 0 -4
BITMAP
FC
04
F4
14
14
14
14
14
14
ENDCHAR
STARTCHAR SF500000
ENCODING 9560
SWIDTH 708 0
DWIDTH 9 0
BBX 5 9 0 2
BITMAP
80
80
80
80
80
80
F8
80
F8
ENDCHAR
STARTCHAR SF490000
ENCODING 9561
SWIDTH 708 0
DWIDTH 9 0
BBX 6 8 0 3
BITMAP
A0
A0
A0
A0
A0
A0
A0
FC
ENDCHAR
STARTCHAR SF380000
ENCODING 9562
SWIDTH 708 0
DWIDTH 9 0
BBX 6 9 0 2
BITMAP
A0
A0
A0
A0
A0
A0
BC
80
FC
ENDCHAR
STARTCHAR SF280000
ENCODING 9563
SWIDTH 708 0
DWIDTH 9 0
BBX 5 9 0 2
BITMAP
08
08
08
08
08
08
F8
08
F8
ENDCHAR
STARTCHAR SF270000
ENCODING 9564
SWIDTH 708 0
DWIDTH 9 0
BBX 6 8 0 3
BITMAP
14
14
14
14
14
14
14
FC
ENDCHAR
STARTCHAR SF260000
ENCODING 9565
SWIDTH 708 0
DWIDTH 9 0
BBX 6 9 0 2
BITMAP
14
14
14
14
14
14
F4
04
FC
ENDCHAR
STARTCHAR SF360000
ENCODING 9566
SWIDTH 708 0
DWIDTH 9 0
BBX 5 15 0 -4
BITMAP
80
80
80
80
80
80
F8
80
F8
80
80
80
80
80
80
ENDCHAR
STARTCHAR SF370000
ENCODING 9567
SWIDTH 708 0
DWIDTH 9 0
BBX 6 15 0 -4
BITMAP
A0
A0
A0
A0
A0
A0
A0
BC
A0
A0
A0
A0
A0
A0
A0
ENDCHAR
STARTCHAR SF420000
ENCODING 9568
SWIDTH 708 0
DWIDTH 9 0
BBX 6 15 0 -4
BITMAP
A0
A0
A0
A0
A0
A0
BC
80
BC
A0
A0
A0
A0
A0
A0
ENDCHAR
STARTCHAR SF190000
ENCODING 9569
SWIDTH 708 0
DWIDTH 9 0
BBX 5 15 0 -4
BITMAP
08
08
08
08
08
08
F8
08
F8
08
08
08
08
08
08
ENDCHAR
STARTCHAR SF200000
ENCODING 9570
SWIDTH 708 0
DWIDTH 9 0
BBX 6 15 0 -4
BITMAP
14
14
14
14
14
14
14
F4
14
14
14
14
14
14
14
ENDCHAR
STARTCHAR SF230000
ENCODING 9571
SWIDTH 708 0
DWIDTH 9 0
BBX 6 15 0 -4
BITMAP
14
14
14
14
14
14
F4
04
F4
14
14
14
14
14
14
ENDCHAR
STARTCHAR SF470000
ENCODING 9572
SWIDTH 708 0
DWIDTH 9 0
BBX 9 9 0 -4
BITMAP
FF80
0000
FF80
0800
0800
0800
0800
0800
0800
ENDCHAR
STARTCHAR SF480000
ENCODING 9573
SWIDTH 708 0
DWIDTH 9 0
BBX 9 8 0 -4
BITMAP
FF80
1400
1400
1400
1400
1400
1400
1400
ENDCHAR
STARTCHAR SF410000
ENCODING 9574
SWIDTH 708 0
DWIDTH 9 0
BBX 9 9 0 -4
BITMAP
FF80
0000
F780
1400
1400
1400
1400
1400
1400
ENDCHAR
STARTCHAR SF450000
ENCODING 9575
SWIDTH 708 0
DWIDTH 9 0
BBX 9 9 0 2
BITMAP
0800
0800
0800
0800
0800
0800
FF80
0000
FF80
ENDCHAR
STARTCHAR SF460000
ENCODING 9576
SWIDTH 708 0
DWIDTH 9 0
BBX 9 8 0 3
BITMAP
1400
1400
1400
1400
1400
1400
1400
FF80
ENDCHAR
STARTCHAR SF400000
ENCODING 9577
SWIDTH 708 0
DWIDTH 9 0
BBX 9 9 0 2
BITMAP
1400
1400
1400
1400
1400
1400
F780
0000
FF80
ENDCHAR
STARTCHAR SF540000
ENCODING 9578
SWIDTH 708 0
DWIDTH 9 0
BBX 9 15 0 -4
BITMAP
0800
0800
0800
0800
0800
0800
FF80
0800
FF80
0800
0800
0800
0800
0800
0800
ENDCHAR
STARTCHAR SF530000
ENCODING 9579
SWIDTH 708 0
DWIDTH 9 0
BBX 9 15 0 -4
BITMAP
1400
1400
1400
1400
1400
1400
1400
FF80
1400
1400
1400
1400
1400
1400
1400
ENDCHAR
STARTCHAR SF440000
ENCODING 9580
SWIDTH 708 0
DWIDTH 9 0
BBX 9 15 0 -4
BITMAP
1400
1400
1400
1400
1400
1400
F780
0000
F780
1400
1400
1400
1400
1400
1400
ENDCHAR
STARTCHAR upblock
ENCODING 9600
SWIDTH 708 0
DWIDTH 9 0
BBX 9 7 0 4
BITMAP
FF80
FF80
FF80
FF80
FF80
FF80
FF80
ENDCHAR
STARTCHAR dnblock
ENCODING 9604
SWIDTH 708 0
DWIDTH 9 0
BBX 9 8 0 -4
BITMAP
FF80
FF80
FF80
FF80
FF80
FF80
FF80
FF80
ENDCHAR
STARTCHAR block
ENCODING 9608
SWIDTH 708 0
DWIDTH 9 0
BBX 9 15 0 -4
BITMAP
FF80
FF80
FF80
FF80
FF80
FF80
FF80
FF80
FF80
FF80
FF80
FF80
FF80
FF80
FF80
ENDCHAR
STARTCHAR lfblock
ENCODING 9612
SWIDTH 708 0
DWIDTH 9 0
BBX 4 15 0 -4
BITMAP
F0
F0
F0
F0
F0
F0
F0
F0
F0
F0
F0
F0
F0
F0
F0
ENDCHAR
STARTCHAR rtblock
ENCODING 9616
SWIDTH 708 0
DWIDTH 9 0
BBX 4 15 0 -4
BITMAP
F0
F0
F0
F0
F0
F0
F0
F0
F0
F0
F0
F0
F0
F0
F0
ENDCHAR
STARTCHAR ltshade
ENCODING 9617
SWIDTH 708 0
DWIDTH 9 0
BBX 7 14 2 -3
BITMAP
08
00
00
08
92
00
08
92
00
08
92
00
08
92
ENDCHAR
STARTCHAR shade
ENCODING 9618
SWIDTH 708 0
DWIDTH 9 0
BBX 9 14 0 -3
BITMAP
2680
0000
0000
2680
D900
0000
2680
D900
0000
2680
D900
0000
2680
D900
ENDCHAR
STARTCHAR dkshade
ENCODING 9619
SWIDTH 729 0
DWIDTH 9 0
BBX 9 15 0 -4
BITMAP
2480
FF80
FF80
B680
DB00
FF80
B680
DB00
FF80
B680
DB00
FF80
FF80
DB00
FF80
ENDCHAR
STARTCHAR filledbox
ENCODING 9632
SWIDTH 604 0
DWIDTH 7 0
BBX 6 6 0 0
BITMAP
FC
FC
FC
FC
FC
FC
ENDCHAR
STARTCHAR H22073
ENCODING 9633
SWIDTH 604 0
DWIDTH 7 0
BBX 5 6 1 0
BITMAP
F8
88
88
88
88
F8
ENDCHAR
STARTCHAR H18543
ENCODING 9642
SWIDTH 354 0
DWIDTH 4 0
BBX 2 2 1 3
BITMAP
C0
C0
ENDCHAR
STARTCHAR H18551
ENCODING 9643
SWIDTH 354 0
DWIDTH 4 0
BBX 2 2 1 3
BITMAP
C0
C0
ENDCHAR
STARTCHAR filledrect
ENCODING 9644
SWIDTH 1000 0
DWIDTH 12 0
BBX 12 2 0 2
BITMAP
FFF0
FFF0
ENDCHAR
STARTCHAR triagup
ENCODING 9650
SWIDTH 989 0
DWIDTH 12 0
BBX 8 8 0 0
BITMAP
08
18
1C
3C
3E
7E
7F
FF
ENDCHAR
STARTCHAR triagrt
ENCODING 9658
SWIDTH 989 0
DWIDTH 12 0
BBX 8 8 0 0
BITMAP
C0
F0
FC
FF
FE
F8
E0
80
ENDCHAR
STARTCHAR triagdn
ENCODING 9660
SWIDTH 989 0
DWIDTH 12 0
BBX 8 8 0 0
BITMAP
FF
7F
7E
3E
3C
1C
18
08
ENDCHAR
STARTCHAR triaglf
ENCODING 9668
SWIDTH 989 0
DWIDTH 12 0
BBX 8 8 2 0
BITMAP
01
07
1F
7F
FF
1F
07
01
ENDCHAR
STARTCHAR lozenge
ENCODING 9674
SWIDTH 494 0
DWIDTH 6 0
BBX 5 9 0 0
BITMAP
20
50
50
88
88
88
50
50
20
ENDCHAR
STARTCHAR circle
ENCODING 9675
SWIDTH 604 0
DWIDTH 7 0
BBX 5 5 0 1
BITMAP
70
88
88
88
70
ENDCHAR
STARTCHAR H18533
ENCODING 9679
SWIDTH 604 0
DWIDTH 7 0
BBX 5 5 1 1
BITMAP
70
F8
F8
F8
70
ENDCHAR
STARTCHAR invbullet
ENCODING 9688
SWIDTH 604 0
DWIDTH 7 0
BBX 6 6 0 0
BITMAP
FC
FC
CC
CC
FC
FC
ENDCHAR
STARTCHAR invcircle
ENCODING 9689
SWIDTH 604 0
DWIDTH 7 0
BBX 7 7 0 0
BITMAP
FE
D6
BA
FE
FA
F6
FE
ENDCHAR
STARTCHAR openbullet
ENCODING 9702
SWIDTH 354 0
DWIDTH 4 0
BBX 3 3 1 2
BITMAP
C0
A0
40
ENDCHAR
STARTCHAR smileface
ENCODING 9786
SWIDTH 1020 0
DWIDTH 12 0
BBX 8 8 2 -1
BITMAP
1C
62
81
A5
81
85
5A
3C
ENDCHAR
STARTCHAR invsmileface
ENCODING 9787
SWIDTH 1052 0
DWIDTH 13 0
BBX 7 8 3 -1
BITMAP
38
FC
FE
F6
FE
F6
7C
38
ENDCHAR
STARTCHAR sun
ENCODING 9788
SWIDTH 916 0
DWIDTH 11 0
BBX 9 11 1 -1
BITMAP
0800
0800
8900
7600
4100
8100
8180
4200
6200
9D00
0800
ENDCHAR
STARTCHAR female
ENCODING 9792
SWIDTH 750 0
DWIDTH 9 0
BBX 7 12 1 -3
BITMAP
38
C4
84
82
84
44
38
10
10
38
10
10
ENDCHAR
STARTCHAR male
ENCODING 9794
SWIDTH 750 0
DWIDTH 9 0
BBX 7 11 1 -2
BITMAP
0E
06
0A
08
30
C8
84
84
84
88
70
ENDCHAR
STARTCHAR spade
ENCODING 9824
SWIDTH 531 0
DWIDTH 6 0
BBX 6 6 0 0
BITMAP
30
78
FC
FC
20
30
ENDCHAR
STARTCHAR club
ENCODING 9827
SWIDTH 656 0
DWIDTH 8 0
BBX 8 7 0 0
BITMAP
18
3C
7E
FF
FE
10
38
ENDCHAR
STARTCHAR heart
ENCODING 9829
SWIDTH 593 0
DWIDTH 7 0
BBX 6 6 0 1
BITMAP
EC
FC
FC
78
38
30
ENDCHAR
STARTCHAR diamond
ENCODING 9830
SWIDTH 510 0
DWIDTH 6 0
BBX 5 7 0 0
BITMAP
20
30
78
F8
78
30
20
ENDCHAR
STARTCHAR musicalnote
ENCODING 9834
SWIDTH 500 0
DWIDTH 6 0
BBX 6 8 0 0
BITMAP
18
2C
24
20
20
60
E0
E0
ENDCHAR
STARTCHAR musicalnotedbl
ENCODING 9835
SWIDTH 750 0
DWIDTH 9 0
BBX 7 10 1 -1
BITMAP
06
3E
32
22
22
22
2E
EE
E0
C0
ENDCHAR
STARTCHAR fi
ENCODING 64257
SWIDTH 500 0
DWIDTH 6 0
BBX 6 9 -1 0
BITMAP
3C
6C
60
FC
6C
6C
6C
6C
6C
ENDCHAR
STARTCHAR fl
ENCODING 64258
SWIDTH 500 0
DWIDTH 6 0
BBX 6 9 -1 0
BITMAP
3C
6C
6C
FC
6C
6C
6C
6C
6C
ENDCHAR
STARTCHAR .notdef
ENCODING -1
SWIDTH 228 0
DWIDTH 3 0
BBX 2 8 0 0
BITMAP
C0
C0
C0
C0
C0
C0
C0
C0
ENDCHAR
STARTCHAR .null
ENCODING -1
SWIDTH 0 0
DWIDTH 0 0
BBX 1 1 0 0
BITMAP
00
ENDCHAR
STARTCHAR nonmarkingreturn
ENCODING -1
SWIDTH 228 0
DWIDTH 3 0
BBX 1 1 0 0
BITMAP
00
ENDCHAR
STARTCHAR pi1
ENCODING -1
SWIDTH 548 0
DWIDTH 7 0
BBX 7 6 0 0
BITMAP
FE
6C
6C
6C
6C
6C
ENDCHAR
STARTCHAR commaaccent
ENCODING -1
SWIDTH 272 0
DWIDTH 3 0
BBX 2 3 1 -4
BITMAP
C0
40
80
ENDCHAR
STARTCHAR undercommaaccent
ENCODING -1
SWIDTH 272 0
DWIDTH 3 0
BBX 3 3 0 -3
BITMAP
E0
20
E0
ENDCHAR
STARTCHAR foursuperior
ENCODING -1
SWIDTH 272 0
DWIDTH 3 0
BBX 3 4 0 5
BITMAP
40
C0
E0
40
ENDCHAR
STARTCHAR fivesuperior
ENCODING -1
SWIDTH 272 0
DWIDTH 3 0
BBX 2 4 0 5
BITMAP
C0
C0
40
C0
ENDCHAR
STARTCHAR sevensuperior
ENCODING -1
SWIDTH 272 0
DWIDTH 3 0
BBX 3 4 0 5
BITMAP
E0
20
40
40
ENDCHAR
STARTCHAR eightsuperior
ENCODING -1
SWIDTH 272 0
DWIDTH 3 0
BBX 2 4 0 5
BITMAP
C0
40
C0
C0
ENDCHAR
STARTCHAR glyph663
ENCODING -1
SWIDTH 228 0
DWIDTH 3 0
BBX 2 12 0 0
BITMAP
C0
80
00
C0
C0
00
C0
C0
C0
C0
C0
C0
ENDCHAR
ENDFONT
